<?xml version="1.0" encoding="UTF-8"?>
<svg xmlns="http://www.w3.org/2000/svg" width="748" height="1016" viewBox="0 0 748 1016" font-family="Segoe UI, system-ui, -apple-system, sans-serif">
<style>
  .bg { fill: #0b0e17; }
  .grid-bg { fill: #131722; }
  .grid-line { stroke: #1f2533; stroke-width: 1; }
  .weekend { fill: #161b29; }
  .title { fill: #e6edf3; font-size: 18px; font-weight: 700; }
  .subtitle { fill: #8b949e; font-size: 11px; }
  .track-name { fill: #c9d1d9; font-size: 12px; font-weight: 600; }
  .track-bg { fill: #0f141e; }
  .header-date { fill: #8b949e; font-size: 10px; text-anchor: middle; }
  .item { fill: #00e676; }
  .item-critical { fill: #ff6b6b; }
  .item-premium { fill: #0077ff; }
  .item-setup { fill: #a371f7; }
  .item-done { fill: #2ea043; }
  .item-label { fill: #e6edf3; font-size: 11px; }
  .sep { stroke: #1f2533; stroke-width: 1; }
</style>
<rect class="bg" width="748" height="1016"/>
<text class="title" x="20" y="32">PariScore — Phases 4-5-6 Refonte Tennis (intégration + polish + deploy)</text>
<text class="subtitle" x="20" y="50">6 jours · 7 tracks · 22 tâches · généré 2026-07-20</text>
<rect class="grid-bg" x="220" y="60" width="504" height="30"/>
<line class="grid-line" x1="220" y1="60" x2="220" y2="1006"/>
<text class="header-date" x="262" y="79">20/07</text>
<line class="grid-line" x1="304" y1="60" x2="304" y2="1006"/>
<text class="header-date" x="346" y="79">21/07</text>
<line class="grid-line" x1="388" y1="60" x2="388" y2="1006"/>
<text class="header-date" x="430" y="79">22/07</text>
<line class="grid-line" x1="472" y1="60" x2="472" y2="1006"/>
<text class="header-date" x="514" y="79">23/07</text>
<line class="grid-line" x1="556" y1="60" x2="556" y2="1006"/>
<text class="header-date" x="598" y="79">24/07</text>
<line class="grid-line" x1="640" y1="60" x2="640" y2="1006"/>
<text class="header-date" x="682" y="79">25/07</text>
<line class="grid-line" x1="724" y1="60" x2="724" y2="1006"/>
<rect class="track-bg" x="0" y="92" width="216" height="28" rx="3"/>
<text class="track-name" x="10" y="110">P4.A — Intégration live (…</text>
<rect class="item item" x="224" y="94" width="76" height="24" rx="4"/>
<text class="item-label" x="230" y="110">Retirer LiveScoreBar (doublon avec Li…</text>
<rect class="track-bg" x="0" y="124" width="216" height="28" rx="3"/>
<text class="track-name" x="10" y="142">P4.A — Intégration live (…</text>
<rect class="item item" x="224" y="126" width="76" height="24" rx="4"/>
<text class="item-label" x="230" y="142">Intégrer WinProbabilityChart + PointT…</text>
<rect class="track-bg" x="0" y="156" width="216" height="28" rx="3"/>
<text class="track-name" x="10" y="174">P4.A — Intégration live (…</text>
<rect class="item item" x="224" y="158" width="76" height="24" rx="4"/>
<text class="item-label" x="230" y="174">Intégrer LiveScoreAnnouncer (sr-only,…</text>
<rect class="track-bg" x="0" y="202" width="216" height="28" rx="3"/>
<text class="track-name" x="10" y="220">P4.B — Dialog + nouveau c…</text>
<rect class="item item" x="224" y="204" width="160" height="24" rx="4"/>
<text class="item-label" x="230" y="220">Créer LastMatchesList.tsx (remplace B…</text>
<rect class="track-bg" x="0" y="234" width="216" height="28" rx="3"/>
<text class="track-name" x="10" y="252">P4.B — Dialog + nouveau c…</text>
<rect class="item item" x="308" y="236" width="76" height="24" rx="4"/>
<text class="item-label" x="314" y="252">Intégrer StatsRadarChart dans MatchDe…</text>
<rect class="track-bg" x="0" y="266" width="216" height="28" rx="3"/>
<text class="track-name" x="10" y="284">P4.B — Dialog + nouveau c…</text>
<rect class="item item" x="308" y="268" width="76" height="24" rx="4"/>
<text class="item-label" x="314" y="284">Intégrer LastMatchesList dans tab form</text>
<rect class="track-bg" x="0" y="312" width="216" height="28" rx="3"/>
<text class="track-name" x="10" y="330">P4.C — Refactors &amp; migrat…</text>
<rect class="item item-done" x="308" y="314" width="160" height="24" rx="4"/>
<text class="item-label" x="314" y="330">next/image migration (fallback + rati…</text>
<rect class="track-bg" x="0" y="344" width="216" height="28" rx="3"/>
<text class="track-name" x="10" y="362">P4.C — Refactors &amp; migrat…</text>
<rect class="item item" x="392" y="346" width="76" height="24" rx="4"/>
<text class="item-label" x="398" y="362">Fusionner match-card-detail ↔ stats-i…</text>
<rect class="track-bg" x="0" y="376" width="216" height="28" rx="3"/>
<text class="track-name" x="10" y="394">P4.C — Refactors &amp; migrat…</text>
<rect class="item item" x="392" y="378" width="76" height="24" rx="4"/>
<text class="item-label" x="398" y="394">Restaurer tooltip SPS (lazy mount via…</text>
<rect class="track-bg" x="0" y="422" width="216" height="28" rx="3"/>
<text class="track-name" x="10" y="440">P4.D — Fixes a11y ciblés</text>
<rect class="item item-done" x="392" y="424" width="76" height="24" rx="4"/>
<text class="item-label" x="398" y="440">Fix probability-bar (tick bg-foregrou…</text>
<rect class="track-bg" x="0" y="454" width="216" height="28" rx="3"/>
<text class="track-name" x="10" y="472">P4.D — Fixes a11y ciblés</text>
<rect class="item item-done" x="392" y="456" width="76" height="24" rx="4"/>
<text class="item-label" x="398" y="472">Fix odds-comparator (aria-sort + onKe…</text>
<rect class="track-bg" x="0" y="500" width="216" height="28" rx="3"/>
<text class="track-name" x="10" y="518">P5.A — Polish visuel</text>
<rect class="item item" x="476" y="502" width="76" height="24" rx="4"/>
<text class="item-label" x="482" y="518">impeccable polish (micro-interactions…</text>
<rect class="track-bg" x="0" y="532" width="216" height="28" rx="3"/>
<text class="track-name" x="10" y="550">P5.A — Polish visuel</text>
<rect class="item item-setup" x="476" y="534" width="76" height="24" rx="4"/>
<text class="item-label" x="482" y="550">hallmark audit anti-AI-slop</text>
<rect class="track-bg" x="0" y="578" width="216" height="28" rx="3"/>
<text class="track-name" x="10" y="596">P5.B — Validation</text>
<rect class="item item" x="476" y="580" width="160" height="24" rx="4"/>
<text class="item-label" x="482" y="596">visual-regression screenshots &apos;après&apos;…</text>
<rect class="track-bg" x="0" y="610" width="216" height="28" rx="3"/>
<text class="track-name" x="10" y="628">P5.B — Validation</text>
<rect class="item item-setup" x="560" y="612" width="76" height="24" rx="4"/>
<text class="item-label" x="566" y="628">Audit a11y axe-core (WCAG 2.2)</text>
<rect class="track-bg" x="0" y="642" width="216" height="28" rx="3"/>
<text class="track-name" x="10" y="660">P5.B — Validation</text>
<rect class="item item" x="560" y="644" width="76" height="24" rx="4"/>
<text class="item-label" x="566" y="660">Tests Playwright pérennes tests/tenni…</text>
<rect class="track-bg" x="0" y="674" width="216" height="28" rx="3"/>
<text class="track-name" x="10" y="692">P5.B — Validation</text>
<rect class="item item" x="560" y="676" width="76" height="24" rx="4"/>
<text class="item-label" x="566" y="692">i18n cleanup (extraire derniers FR ha…</text>
<rect class="track-bg" x="0" y="706" width="216" height="28" rx="3"/>
<text class="track-name" x="10" y="724">P5.B — Validation</text>
<rect class="item item" x="560" y="708" width="76" height="24" rx="4"/>
<text class="item-label" x="566" y="724">Core Web Vitals (LCP/INP/CLS)</text>
<rect class="track-bg" x="0" y="752" width="216" height="28" rx="3"/>
<text class="track-name" x="10" y="770">P6 — Déploiement</text>
<rect class="item item" x="644" y="754" width="76" height="24" rx="4"/>
<text class="item-label" x="650" y="770">bun run build + node --check inline s…</text>
<rect class="track-bg" x="0" y="784" width="216" height="28" rx="3"/>
<text class="track-name" x="10" y="802">P6 — Déploiement</text>
<rect class="item item" x="644" y="786" width="76" height="24" rx="4"/>
<text class="item-label" x="650" y="802">Deploy VPS (git pull + bun install + …</text>
<rect class="track-bg" x="0" y="816" width="216" height="28" rx="3"/>
<text class="track-name" x="10" y="834">P6 — Déploiement</text>
<rect class="item item" x="644" y="818" width="76" height="24" rx="4"/>
<text class="item-label" x="650" y="834">Vérif prod (0 pageerror + scores visi…</text>
<rect class="track-bg" x="0" y="848" width="216" height="28" rx="3"/>
<text class="track-name" x="10" y="866">P6 — Déploiement</text>
<rect class="item item" x="644" y="850" width="76" height="24" rx="4"/>
<text class="item-label" x="650" y="866">bd close + bd remember + CHANGELOG.md</text>
<line class="sep" x1="0" y1="60" x2="748" y2="60"/>
</svg>