<?xml version="1.0" encoding="UTF-8"?>
<svg xmlns="http://www.w3.org/2000/svg" width="1168" height="1752" viewBox="0 0 1168 1752" font-family="Segoe UI, system-ui, -apple-system, sans-serif">
<style>
  .bg { fill: #0b0e17; }
  .grid-bg { fill: #131722; }
  .grid-line { stroke: #1f2533; stroke-width: 1; }
  .weekend { fill: #161b29; }
  .title { fill: #e6edf3; font-size: 18px; font-weight: 700; }
  .subtitle { fill: #8b949e; font-size: 11px; }
  .track-name { fill: #c9d1d9; font-size: 12px; font-weight: 600; }
  .track-bg { fill: #0f141e; }
  .header-date { fill: #8b949e; font-size: 10px; text-anchor: middle; }
  .item { fill: #00e676; }
  .item-critical { fill: #ff6b6b; }
  .item-premium { fill: #0077ff; }
  .item-setup { fill: #a371f7; }
  .item-done { fill: #2ea043; }
  .item-label { fill: #e6edf3; font-size: 11px; }
  .sep { stroke: #1f2533; stroke-width: 1; }
</style>
<rect class="bg" width="1168" height="1752"/>
<text class="title" x="20" y="32">PariScore — Refonte Analyse Tennis + Skills Tier 1 (20-30 juillet)</text>
<text class="subtitle" x="20" y="50">11 jours · 8 tracks · 44 tâches · généré 2026-07-19</text>
<rect class="grid-bg" x="220" y="60" width="924" height="30"/>
<line class="grid-line" x1="220" y1="60" x2="220" y2="1742"/>
<text class="header-date" x="262" y="79">20/07</text>
<line class="grid-line" x1="304" y1="60" x2="304" y2="1742"/>
<text class="header-date" x="346" y="79">21/07</text>
<line class="grid-line" x1="388" y1="60" x2="388" y2="1742"/>
<text class="header-date" x="430" y="79">22/07</text>
<line class="grid-line" x1="472" y1="60" x2="472" y2="1742"/>
<text class="header-date" x="514" y="79">23/07</text>
<line class="grid-line" x1="556" y1="60" x2="556" y2="1742"/>
<text class="header-date" x="598" y="79">24/07</text>
<rect class="weekend" x="640" y="60" width="84" height="1692"/>
<line class="grid-line" x1="640" y1="60" x2="640" y2="1742"/>
<text class="header-date" x="682" y="79">25/07</text>
<rect class="weekend" x="724" y="60" width="84" height="1692"/>
<line class="grid-line" x1="724" y1="60" x2="724" y2="1742"/>
<text class="header-date" x="766" y="79">26/07</text>
<line class="grid-line" x1="808" y1="60" x2="808" y2="1742"/>
<text class="header-date" x="850" y="79">27/07</text>
<line class="grid-line" x1="892" y1="60" x2="892" y2="1742"/>
<text class="header-date" x="934" y="79">28/07</text>
<line class="grid-line" x1="976" y1="60" x2="976" y2="1742"/>
<text class="header-date" x="1018" y="79">29/07</text>
<line class="grid-line" x1="1060" y1="60" x2="1060" y2="1742"/>
<text class="header-date" x="1102" y="79">30/07</text>
<line class="grid-line" x1="1144" y1="60" x2="1144" y2="1742"/>
<rect class="track-bg" x="0" y="92" width="216" height="28" rx="3"/>
<text class="track-name" x="10" y="110">🧰 Skills Tier 1 (install)</text>
<rect class="item item-done" x="224" y="94" width="76" height="24" rx="4"/>
<text class="item-label" x="230" y="110">✅ 10 skills installés (tufte-data-viz…</text>
<rect class="track-bg" x="0" y="124" width="216" height="28" rx="3"/>
<text class="track-name" x="10" y="142">🧰 Skills Tier 1 (install)</text>
<rect class="item item-done" x="224" y="126" width="76" height="24" rx="4"/>
<text class="item-label" x="230" y="142">✅ Bug fix sync-skills.js (path openco…</text>
<rect class="track-bg" x="0" y="156" width="216" height="28" rx="3"/>
<text class="track-name" x="10" y="174">🧰 Skills Tier 1 (install)</text>
<rect class="item item-done" x="224" y="158" width="76" height="24" rx="4"/>
<text class="item-label" x="230" y="174">✅ awesome-design-md (74 DESIGN.md mar…</text>
<rect class="track-bg" x="0" y="188" width="216" height="28" rx="3"/>
<text class="track-name" x="10" y="206">🧰 Skills Tier 1 (install)</text>
<rect class="item item-done" x="224" y="190" width="76" height="24" rx="4"/>
<text class="item-label" x="230" y="206">✅ ui-ux-pro-max-cli npm global (v2.11…</text>
<rect class="track-bg" x="0" y="220" width="216" height="28" rx="3"/>
<text class="track-name" x="10" y="238">🧰 Skills Tier 1 (install)</text>
<rect class="item item" x="224" y="222" width="76" height="24" rx="4"/>
<text class="item-label" x="230" y="238">Commit + push skills</text>
<rect class="track-bg" x="0" y="252" width="216" height="28" rx="3"/>
<text class="track-name" x="10" y="270">🧰 Skills Tier 1 (install)</text>
<rect class="item item" x="308" y="254" width="76" height="24" rx="4"/>
<text class="item-label" x="314" y="270">Installer MCP Context7 + Chrome DevTo…</text>
<rect class="track-bg" x="0" y="298" width="216" height="28" rx="3"/>
<text class="track-name" x="10" y="316">P0 — Setup &amp; audit</text>
<rect class="item item-setup" x="224" y="300" width="76" height="24" rx="4"/>
<text class="item-label" x="230" y="316">impeccable audit src/components/tenni…</text>
<rect class="track-bg" x="0" y="330" width="216" height="28" rx="3"/>
<text class="track-name" x="10" y="348">P0 — Setup &amp; audit</text>
<rect class="item item-setup" x="224" y="332" width="76" height="24" rx="4"/>
<text class="item-label" x="230" y="348">hallmark audit (anti-AI-slop)</text>
<rect class="track-bg" x="0" y="362" width="216" height="28" rx="3"/>
<text class="track-name" x="10" y="380">P0 — Setup &amp; audit</text>
<rect class="item item" x="224" y="364" width="76" height="24" rx="4"/>
<text class="item-label" x="230" y="380">visual-regression screenshots &apos;avant&apos;</text>
<rect class="track-bg" x="0" y="394" width="216" height="28" rx="3"/>
<text class="track-name" x="10" y="412">P0 — Setup &amp; audit</text>
<rect class="item item" x="224" y="396" width="160" height="24" rx="4"/>
<text class="item-label" x="230" y="412">Aligner palette DESIGN_CHARTER.md + s…</text>
<rect class="track-bg" x="0" y="426" width="216" height="28" rx="3"/>
<text class="track-name" x="10" y="444">P0 — Setup &amp; audit</text>
<rect class="item item" x="224" y="428" width="76" height="24" rx="4"/>
<text class="item-label" x="230" y="444">Créer branche refonte-tennis-v2</text>
<rect class="track-bg" x="0" y="472" width="216" height="28" rx="3"/>
<text class="track-name" x="10" y="490">P1 — Fixes CRITICAL 🔴</text>
<rect class="item item" x="308" y="474" width="76" height="24" rx="4"/>
<text class="item-label" x="314" y="490">SetScoreline.tsx (6-4 6-3 3-2)</text>
<rect class="track-bg" x="0" y="504" width="216" height="28" rx="3"/>
<text class="track-name" x="10" y="522">P1 — Fixes CRITICAL 🔴</text>
<rect class="item item" x="308" y="506" width="76" height="24" rx="4"/>
<text class="item-label" x="314" y="522">CurrentGameScore.tsx (15/30/40/AD)</text>
<rect class="track-bg" x="0" y="536" width="216" height="28" rx="3"/>
<text class="track-name" x="10" y="554">P1 — Fixes CRITICAL 🔴</text>
<rect class="item item" x="308" y="538" width="76" height="24" rx="4"/>
<text class="item-label" x="314" y="554">ServerIndicator.tsx (icône tennis)</text>
<rect class="track-bg" x="0" y="568" width="216" height="28" rx="3"/>
<text class="track-name" x="10" y="586">P1 — Fixes CRITICAL 🔴</text>
<rect class="item item" x="308" y="570" width="76" height="24" rx="4"/>
<text class="item-label" x="314" y="586">Intégrer 3 composants dans match-card…</text>
<rect class="track-bg" x="0" y="600" width="216" height="28" rx="3"/>
<text class="track-name" x="10" y="618">P1 — Fixes CRITICAL 🔴</text>
<rect class="item item-done" x="308" y="602" width="76" height="24" rx="4"/>
<text class="item-label" x="314" y="618">Fix i18n date match-card-header.tsx:53</text>
<rect class="track-bg" x="0" y="632" width="216" height="28" rx="3"/>
<text class="track-name" x="10" y="650">P1 — Fixes CRITICAL 🔴</text>
<rect class="item item-done" x="308" y="634" width="76" height="24" rx="4"/>
<text class="item-label" x="314" y="650">Fix bug labels set momentum-dr.tsx:31…</text>
<rect class="track-bg" x="0" y="678" width="216" height="28" rx="3"/>
<text class="track-name" x="10" y="696">P2 — Refonte live-stats-p…</text>
<rect class="item item" x="392" y="680" width="160" height="24" rx="4"/>
<text class="item-label" x="398" y="696">ServeStatsBars.tsx (1st in%, won%, 2n…</text>
<rect class="track-bg" x="0" y="710" width="216" height="28" rx="3"/>
<text class="track-name" x="10" y="728">P2 — Refonte live-stats-p…</text>
<rect class="item item" x="392" y="712" width="160" height="24" rx="4"/>
<text class="item-label" x="398" y="728">BreakPointsGrid.tsx (set-par-set 2/3)</text>
<rect class="track-bg" x="0" y="742" width="216" height="28" rx="3"/>
<text class="track-name" x="10" y="760">P2 — Refonte live-stats-p…</text>
<rect class="item item" x="392" y="744" width="160" height="24" rx="4"/>
<text class="item-label" x="398" y="760">SetBySetTable.tsx (Sofascore-like)</text>
<rect class="track-bg" x="0" y="774" width="216" height="28" rx="3"/>
<text class="track-name" x="10" y="792">P2 — Refonte live-stats-p…</text>
<rect class="item item" x="476" y="776" width="76" height="24" rx="4"/>
<text class="item-label" x="482" y="792">Supprimer 4 ServiceCircle (redondants)</text>
<rect class="track-bg" x="0" y="806" width="216" height="28" rx="3"/>
<text class="track-name" x="10" y="824">P2 — Refonte live-stats-p…</text>
<rect class="item item" x="476" y="808" width="76" height="24" rx="4"/>
<text class="item-label" x="482" y="824">Ajouter truncate + tooltip headers ta…</text>
<rect class="track-bg" x="0" y="852" width="216" height="28" rx="3"/>
<text class="track-name" x="10" y="870">P3 — Nouveaux composants …</text>
<rect class="item item" x="560" y="854" width="160" height="24" rx="4"/>
<text class="item-label" x="566" y="870">WinProbabilityChart.tsx (ECharts live…</text>
<rect class="track-bg" x="0" y="884" width="216" height="28" rx="3"/>
<text class="track-name" x="10" y="902">P3 — Nouveaux composants …</text>
<rect class="item item" x="560" y="886" width="160" height="24" rx="4"/>
<text class="item-label" x="566" y="902">PointTimeline.tsx (PBP jeu par jeu)</text>
<rect class="track-bg" x="0" y="916" width="216" height="28" rx="3"/>
<text class="track-name" x="10" y="934">P3 — Nouveaux composants …</text>
<rect class="item item" x="560" y="918" width="160" height="24" rx="4"/>
<text class="item-label" x="566" y="934">StatsRadarChart.tsx (shadcn Radar P1 …</text>
<rect class="track-bg" x="0" y="948" width="216" height="28" rx="3"/>
<text class="track-name" x="10" y="966">P3 — Nouveaux composants …</text>
<rect class="item item" x="644" y="950" width="160" height="24" rx="4"/>
<text class="item-label" x="650" y="966">Refonte momentum-dr.tsx (typo ≥11px, …</text>
<rect class="track-bg" x="0" y="980" width="216" height="28" rx="3"/>
<text class="track-name" x="10" y="998">P3 — Nouveaux composants …</text>
<rect class="item item" x="644" y="982" width="160" height="24" rx="4"/>
<text class="item-label" x="650" y="998">useAnnouncer / LiveRegion (a11y score…</text>
<rect class="track-bg" x="0" y="1026" width="216" height="28" rx="3"/>
<text class="track-name" x="10" y="1044">P4 — Refonte prematch 🟠</text>
<rect class="item item" x="728" y="1028" width="160" height="24" rx="4"/>
<text class="item-label" x="734" y="1044">LastMatchesList.tsx (10 derniers matc…</text>
<rect class="track-bg" x="0" y="1058" width="216" height="28" rx="3"/>
<text class="track-name" x="10" y="1076">P4 — Refonte prematch 🟠</text>
<rect class="item item" x="728" y="1060" width="76" height="24" rx="4"/>
<text class="item-label" x="734" y="1076">Migrer &lt;img&gt; → next/image (fallback +…</text>
<rect class="track-bg" x="0" y="1090" width="216" height="28" rx="3"/>
<text class="track-name" x="10" y="1108">P4 — Refonte prematch 🟠</text>
<rect class="item item" x="812" y="1092" width="76" height="24" rx="4"/>
<text class="item-label" x="818" y="1108">Fusionner match-card-detail ↔ stats-i…</text>
<rect class="track-bg" x="0" y="1122" width="216" height="28" rx="3"/>
<text class="track-name" x="10" y="1140">P4 — Refonte prematch 🟠</text>
<rect class="item item" x="812" y="1124" width="76" height="24" rx="4"/>
<text class="item-label" x="818" y="1140">Restaurer tooltip SPS via lazy mount …</text>
<rect class="track-bg" x="0" y="1154" width="216" height="28" rx="3"/>
<text class="track-name" x="10" y="1172">P4 — Refonte prematch 🟠</text>
<rect class="item item-done" x="812" y="1156" width="76" height="24" rx="4"/>
<text class="item-label" x="818" y="1172">Fix probability-bar.tsx (tick bg-fore…</text>
<rect class="track-bg" x="0" y="1186" width="216" height="28" rx="3"/>
<text class="track-name" x="10" y="1204">P4 — Refonte prematch 🟠</text>
<rect class="item item-done" x="812" y="1188" width="76" height="24" rx="4"/>
<text class="item-label" x="818" y="1204">Fix odds-comparator.tsx (a11y tri ari…</text>
<rect class="track-bg" x="0" y="1232" width="216" height="28" rx="3"/>
<text class="track-name" x="10" y="1250">P5 — Polish &amp; validation</text>
<rect class="item item" x="896" y="1234" width="76" height="24" rx="4"/>
<text class="item-label" x="902" y="1250">impeccable polish (micro-interactions)</text>
<rect class="track-bg" x="0" y="1264" width="216" height="28" rx="3"/>
<text class="track-name" x="10" y="1282">P5 — Polish &amp; validation</text>
<rect class="item item-setup" x="896" y="1266" width="76" height="24" rx="4"/>
<text class="item-label" x="902" y="1282">hallmark audit final</text>
<rect class="track-bg" x="0" y="1296" width="216" height="28" rx="3"/>
<text class="track-name" x="10" y="1314">P5 — Polish &amp; validation</text>
<rect class="item item" x="896" y="1298" width="76" height="24" rx="4"/>
<text class="item-label" x="902" y="1314">visual-regression screenshots &apos;après&apos;…</text>
<rect class="track-bg" x="0" y="1328" width="216" height="28" rx="3"/>
<text class="track-name" x="10" y="1346">P5 — Polish &amp; validation</text>
<rect class="item item" x="896" y="1330" width="160" height="24" rx="4"/>
<text class="item-label" x="902" y="1346">fec-accessibility-testing (axe-core, …</text>
<rect class="track-bg" x="0" y="1360" width="216" height="28" rx="3"/>
<text class="track-name" x="10" y="1378">P5 — Polish &amp; validation</text>
<rect class="item item" x="896" y="1362" width="160" height="24" rx="4"/>
<text class="item-label" x="902" y="1378">Tests Playwright pérennes tests/</text>
<rect class="track-bg" x="0" y="1392" width="216" height="28" rx="3"/>
<text class="track-name" x="10" y="1410">P5 — Polish &amp; validation</text>
<rect class="item item" x="980" y="1394" width="76" height="24" rx="4"/>
<text class="item-label" x="986" y="1410">i18n complet (extraire FR hardcodés →…</text>
<rect class="track-bg" x="0" y="1424" width="216" height="28" rx="3"/>
<text class="track-name" x="10" y="1442">P5 — Polish &amp; validation</text>
<rect class="item item" x="980" y="1426" width="76" height="24" rx="4"/>
<text class="item-label" x="986" y="1442">Core Web Vitals (LCP&lt;2.5s, INP&lt;200ms,…</text>
<rect class="track-bg" x="0" y="1470" width="216" height="28" rx="3"/>
<text class="track-name" x="10" y="1488">P6 — Déploiement</text>
<rect class="item item" x="1064" y="1472" width="76" height="24" rx="4"/>
<text class="item-label" x="1070" y="1488">bun run build local + node --check</text>
<rect class="track-bg" x="0" y="1502" width="216" height="28" rx="3"/>
<text class="track-name" x="10" y="1520">P6 — Déploiement</text>
<rect class="item item" x="1064" y="1504" width="76" height="24" rx="4"/>
<text class="item-label" x="1070" y="1520">Deploy VPS + pm2 restart</text>
<rect class="track-bg" x="0" y="1534" width="216" height="28" rx="3"/>
<text class="track-name" x="10" y="1552">P6 — Déploiement</text>
<rect class="item item" x="1064" y="1536" width="76" height="24" rx="4"/>
<text class="item-label" x="1070" y="1552">Vérif prod (0 pageerror, 0 console.er…</text>
<rect class="track-bg" x="0" y="1566" width="216" height="28" rx="3"/>
<text class="track-name" x="10" y="1584">P6 — Déploiement</text>
<rect class="item item" x="1064" y="1568" width="76" height="24" rx="4"/>
<text class="item-label" x="1070" y="1584">bd close tickets + bd remember décisi…</text>
<line class="sep" x1="0" y1="60" x2="1168" y2="60"/>
</svg>