<?xml version="1.0" encoding="UTF-8"?>
<svg xmlns="http://www.w3.org/2000/svg" width="580" height="824" viewBox="0 0 580 824" font-family="Segoe UI, system-ui, -apple-system, sans-serif">
<style>
  .bg { fill: #0b0e17; }
  .grid-bg { fill: #131722; }
  .grid-line { stroke: #1f2533; stroke-width: 1; }
  .weekend { fill: #161b29; }
  .title { fill: #e6edf3; font-size: 18px; font-weight: 700; }
  .subtitle { fill: #8b949e; font-size: 11px; }
  .track-name { fill: #c9d1d9; font-size: 12px; font-weight: 600; }
  .track-bg { fill: #0f141e; }
  .header-date { fill: #8b949e; font-size: 10px; text-anchor: middle; }
  .item { fill: #00e676; }
  .item-critical { fill: #ff6b6b; }
  .item-premium { fill: #0077ff; }
  .item-setup { fill: #a371f7; }
  .item-done { fill: #2ea043; }
  .item-label { fill: #e6edf3; font-size: 11px; }
  .sep { stroke: #1f2533; stroke-width: 1; }
</style>
<rect class="bg" width="580" height="824"/>
<text class="title" x="20" y="32">Filtres Ascenseur — Championnats &amp; Stratégies (Football)</text>
<text class="subtitle" x="20" y="50">4 jours · 7 tracks · 16 tâches · généré 2026-08-15</text>
<rect class="grid-bg" x="220" y="60" width="336" height="30"/>
<rect class="weekend" x="220" y="60" width="84" height="764"/>
<line class="grid-line" x1="220" y1="60" x2="220" y2="814"/>
<text class="header-date" x="262" y="79">15/08</text>
<rect class="weekend" x="304" y="60" width="84" height="764"/>
<line class="grid-line" x1="304" y1="60" x2="304" y2="814"/>
<text class="header-date" x="346" y="79">16/08</text>
<line class="grid-line" x1="388" y1="60" x2="388" y2="814"/>
<text class="header-date" x="430" y="79">17/08</text>
<line class="grid-line" x1="472" y1="60" x2="472" y2="814"/>
<text class="header-date" x="514" y="79">18/08</text>
<line class="grid-line" x1="556" y1="60" x2="556" y2="814"/>
<rect class="track-bg" x="0" y="92" width="216" height="28" rx="3"/>
<text class="track-name" x="10" y="110">Recherche &amp; spec</text>
<rect class="item item" x="224" y="94" width="76" height="24" rx="4"/>
<text class="item-label" x="230" y="110">Exploration codebase (.mls, renderMat…</text>
<rect class="track-bg" x="0" y="124" width="216" height="28" rx="3"/>
<text class="track-name" x="10" y="142">Recherche &amp; spec</text>
<rect class="item item" x="224" y="126" width="76" height="24" rx="4"/>
<text class="item-label" x="230" y="142">Décision architecture (réutiliser .ml…</text>
<rect class="track-bg" x="0" y="170" width="216" height="28" rx="3"/>
<text class="track-name" x="10" y="188">Composant accordéon champ…</text>
<rect class="item item" x="224" y="172" width="76" height="24" rx="4"/>
<text class="item-label" x="230" y="188">CSS .mls-accordion (panneau inline, c…</text>
<rect class="track-bg" x="0" y="202" width="216" height="28" rx="3"/>
<text class="track-name" x="10" y="220">Composant accordéon champ…</text>
<rect class="item item" x="224" y="204" width="76" height="24" rx="4"/>
<text class="item-label" x="230" y="220">HTML #ml-league → accordéon (header +…</text>
<rect class="track-bg" x="0" y="234" width="216" height="28" rx="3"/>
<text class="track-name" x="10" y="252">Composant accordéon champ…</text>
<rect class="item item" x="224" y="236" width="76" height="24" rx="4"/>
<text class="item-label" x="230" y="252">JS mlAccToggle() + sync UI</text>
<rect class="track-bg" x="0" y="280" width="216" height="28" rx="3"/>
<text class="track-name" x="10" y="298">Composant accordéon strat…</text>
<rect class="item item" x="224" y="282" width="76" height="24" rx="4"/>
<text class="item-label" x="230" y="298">HTML #ts-select → accordéon</text>
<rect class="track-bg" x="0" y="312" width="216" height="28" rx="3"/>
<text class="track-name" x="10" y="330">Composant accordéon strat…</text>
<rect class="item item" x="224" y="314" width="76" height="24" rx="4"/>
<text class="item-label" x="230" y="330">JS tsAccToggle() + sync UI</text>
<rect class="track-bg" x="0" y="358" width="216" height="28" rx="3"/>
<text class="track-name" x="10" y="376">Application live + premat…</text>
<rect class="item item" x="224" y="360" width="76" height="24" rx="4"/>
<text class="item-label" x="230" y="376">Vérification état partagé (activeLeag…</text>
<rect class="track-bg" x="0" y="390" width="216" height="28" rx="3"/>
<text class="track-name" x="10" y="408">Application live + premat…</text>
<rect class="item item" x="224" y="392" width="76" height="24" rx="4"/>
<text class="item-label" x="230" y="408">Vérification renderMatches() (filtres…</text>
<rect class="track-bg" x="0" y="436" width="216" height="28" rx="3"/>
<text class="track-name" x="10" y="454">Mobile (#mfs-body)</text>
<rect class="item item" x="224" y="438" width="76" height="24" rx="4"/>
<text class="item-label" x="230" y="454">Vérification _mfsRelocate() + scroll …</text>
<rect class="track-bg" x="0" y="482" width="216" height="28" rx="3"/>
<text class="track-name" x="10" y="500">QA &amp; validation</text>
<rect class="item item" x="224" y="484" width="76" height="24" rx="4"/>
<text class="item-label" x="230" y="500">node --check pariscore.js</text>
<rect class="track-bg" x="0" y="514" width="216" height="28" rx="3"/>
<text class="track-name" x="10" y="532">QA &amp; validation</text>
<rect class="item item" x="224" y="516" width="160" height="24" rx="4"/>
<text class="item-label" x="230" y="532">Test manuel multi-choix championnats</text>
<rect class="track-bg" x="0" y="546" width="216" height="28" rx="3"/>
<text class="track-name" x="10" y="564">QA &amp; validation</text>
<rect class="item item" x="224" y="548" width="160" height="24" rx="4"/>
<text class="item-label" x="230" y="564">Test manuel multi-choix stratégies + …</text>
<rect class="track-bg" x="0" y="578" width="216" height="28" rx="3"/>
<text class="track-name" x="10" y="596">QA &amp; validation</text>
<rect class="item item" x="308" y="580" width="76" height="24" rx="4"/>
<text class="item-label" x="314" y="596">Test persistance filtres entre onglet…</text>
<rect class="track-bg" x="0" y="610" width="216" height="28" rx="3"/>
<text class="track-name" x="10" y="628">QA &amp; validation</text>
<rect class="item item" x="308" y="612" width="160" height="24" rx="4"/>
<text class="item-label" x="314" y="628">Test mobile viewport &lt; 768px</text>
<rect class="track-bg" x="0" y="656" width="216" height="28" rx="3"/>
<text class="track-name" x="10" y="674">Gantt &amp; pilotage</text>
<rect class="item item" x="224" y="658" width="76" height="24" rx="4"/>
<text class="item-label" x="230" y="674">Création gantt-filters-ascenseur.json…</text>
<line class="sep" x1="0" y1="60" x2="580" y2="60"/>
</svg>