<svg xmlns="http://www.w3.org/2000/svg" width="808" height="720" viewBox="0 0 808 720" role="img" aria-labelledby="title desc">
<title>Migration React Tennis Live Stats</title>
<desc>Migration React Tennis Live Stats rendered across Phase 1: Hook to QA</desc>
<style>
text { font-family: Menlo, Consolas, monospace; fill: #122033; }
.title { font-size: 24px; font-weight: 700; }
.subtitle { font-size: 12px; fill: #526072; }
.axis-title { font-size: 11px; font-weight: 700; fill: #526072; letter-spacing: 0.06em; }
.track-label { font-size: 13px; font-weight: 700; }
.axis-text { font-size: 12px; font-weight: 700; fill: #314255; }
.bar-label { font-size: 12px; font-weight: 700; }
.bar-label-outside { font-size: 12px; font-weight: 700; fill: #122033; }
</style>
<rect width="808" height="720" fill="#f7f3ea" />
<rect x="0" y="0" width="808" height="76" fill="#efe8d8" />
<text x="24" y="34" class="title">Migration React Tennis Live Stats</text>
<text x="24" y="56" class="subtitle">Phase 1: Hook to QA</text>
<text x="240" y="80" class="axis-title">PHASES</text>
<rect x="240" y="92" width="528" height="54" fill="#e9dfca" />
<rect x="240" y="92" width="132" height="54" fill="#efe4ce" />
<line x1="240" y1="92" x2="240" y2="146" stroke="#cabca1" stroke-width="1" />
<text x="306.0" y="124.0" text-anchor="middle" class="axis-text">Phase 1: Hook</text>
<rect x="372" y="92" width="132" height="54" fill="#e6dac1" />
<line x1="372" y1="92" x2="372" y2="146" stroke="#cabca1" stroke-width="1" />
<text x="438.0" y="124.0" text-anchor="middle" class="axis-text">Phase 2: Component</text>
<rect x="504" y="92" width="132" height="54" fill="#efe4ce" />
<line x1="504" y1="92" x2="504" y2="146" stroke="#cabca1" stroke-width="1" />
<text x="570.0" y="124.0" text-anchor="middle" class="axis-text">Phase 3: Integration</text>
<rect x="636" y="92" width="132" height="54" fill="#e6dac1" />
<line x1="636" y1="92" x2="636" y2="146" stroke="#cabca1" stroke-width="1" />
<text x="702.0" y="124.0" text-anchor="middle" class="axis-text">QA</text>
<line x1="768" y1="92" x2="768" y2="146" stroke="#cabca1" stroke-width="1" />
<line x1="240" y1="146" x2="768" y2="146" stroke="#cabca1" stroke-width="1" />
<line x1="240" y1="146" x2="240" y2="688" stroke="#d8d1c2" stroke-width="1" />
<line x1="372" y1="146" x2="372" y2="688" stroke="#d8d1c2" stroke-width="1" />
<line x1="504" y1="146" x2="504" y2="688" stroke="#d8d1c2" stroke-width="1" />
<line x1="636" y1="146" x2="636" y2="688" stroke="#d8d1c2" stroke-width="1" />
<line x1="768" y1="146" x2="768" y2="688" stroke="#d8d1c2" stroke-width="1" />
<rect x="0" y="146" width="240" height="136" fill="#fbf8f2" />
<rect x="240" y="146" width="528" height="136" fill="#fbf8f2" />
<text x="24" y="219.0" class="track-label">🧩 Hook</text>
<line x1="0" y1="146" x2="768" y2="146" stroke="#ddd3be" stroke-width="1" />
<line x1="0" y1="180" x2="768" y2="180" stroke="#ddd3be" stroke-width="1" />
<line x1="0" y1="214" x2="768" y2="214" stroke="#ddd3be" stroke-width="1" />
<line x1="0" y1="248" x2="768" y2="248" stroke="#ddd3be" stroke-width="1" />
<line x1="0" y1="282" x2="768" y2="282" stroke="#ddd3be" stroke-width="1" />
<rect x="246" y="152" width="120" height="22" rx="7" ry="7" fill="#1f6feb" stroke="#17324d" stroke-opacity="0.15" />
<text x="256" y="169" class="bar-label" fill="#ffffff">DataSentinel + Normalize pattern ported</text>
<rect x="246" y="186" width="120" height="22" rx="7" ry="7" fill="#f05d23" stroke="#17324d" stroke-opacity="0.15" />
<text x="256" y="203" class="bar-label" fill="#ffffff">SSE useTennisLiveStats(matchId) with retry</text>
<rect x="246" y="220" width="120" height="22" rx="7" ry="7" fill="#1f6feb" stroke="#17324d" stroke-opacity="0.15" />
<text x="256" y="237" class="bar-label" fill="#ffffff">Zod types (TennisLiveStats/SetStats/ServiceStats)</text>
<rect x="246" y="254" width="120" height="22" rx="7" ry="7" fill="#2a9d8f" stroke="#17324d" stroke-opacity="0.15" />
<text x="256" y="271" class="bar-label" fill="#ffffff">Zod validation + SSR guard</text>
<rect x="0" y="290" width="240" height="170" fill="#f3ede2" />
<rect x="240" y="290" width="528" height="170" fill="#f3ede2" />
<text x="24" y="380.0" class="track-label">🎨 Component</text>
<line x1="0" y1="290" x2="768" y2="290" stroke="#ddd3be" stroke-width="1" />
<line x1="0" y1="324" x2="768" y2="324" stroke="#ddd3be" stroke-width="1" />
<line x1="0" y1="358" x2="768" y2="358" stroke="#ddd3be" stroke-width="1" />
<line x1="0" y1="392" x2="768" y2="392" stroke="#ddd3be" stroke-width="1" />
<line x1="0" y1="426" x2="768" y2="426" stroke="#ddd3be" stroke-width="1" />
<line x1="0" y1="460" x2="768" y2="460" stroke="#ddd3be" stroke-width="1" />
<rect x="378" y="296" width="120" height="22" rx="7" ry="7" fill="#2a9d8f" stroke="#17324d" stroke-opacity="0.15" />
<text x="388" y="313" class="bar-label" fill="#ffffff">Per-set breakdown table</text>
<rect x="378" y="330" width="120" height="22" rx="7" ry="7" fill="#f05d23" stroke="#17324d" stroke-opacity="0.15" />
<text x="388" y="347" class="bar-label" fill="#ffffff">Service circles (SVG Progress ring)</text>
<rect x="378" y="364" width="120" height="22" rx="7" ry="7" fill="#1f6feb" stroke="#17324d" stroke-opacity="0.15" />
<text x="388" y="381" class="bar-label" fill="#ffffff">Stat rows (Table + hi/lo coloring)</text>
<rect x="378" y="398" width="120" height="22" rx="7" ry="7" fill="#ffb703" stroke="#17324d" stroke-opacity="0.15" />
<text x="388" y="415" class="bar-label" fill="#ffffff">States: loading/error/empty/stale/DEMO</text>
<rect x="378" y="432" width="120" height="22" rx="7" ry="7" fill="#577590" stroke="#17324d" stroke-opacity="0.15" />
<text x="388" y="449" class="bar-label" fill="#ffffff">live-stats-panel.tsx structure (Card)</text>
<rect x="0" y="468" width="240" height="102" fill="#fbf8f2" />
<rect x="240" y="468" width="528" height="102" fill="#fbf8f2" />
<text x="24" y="524.0" class="track-label">🔗 Integration</text>
<line x1="0" y1="468" x2="768" y2="468" stroke="#ddd3be" stroke-width="1" />
<line x1="0" y1="502" x2="768" y2="502" stroke="#ddd3be" stroke-width="1" />
<line x1="0" y1="536" x2="768" y2="536" stroke="#ddd3be" stroke-width="1" />
<line x1="0" y1="570" x2="768" y2="570" stroke="#ddd3be" stroke-width="1" />
<rect x="510" y="474" width="120" height="22" rx="7" ry="7" fill="#1f6feb" stroke="#17324d" stroke-opacity="0.15" />
<text x="520" y="491" class="bar-label" fill="#ffffff">Cleanup legacy JS functions</text>
<rect x="510" y="508" width="120" height="22" rx="7" ry="7" fill="#f05d23" stroke="#17324d" stroke-opacity="0.15" />
<text x="520" y="525" class="bar-label" fill="#ffffff">Mount into match card React wrapper</text>
<rect x="510" y="542" width="120" height="22" rx="7" ry="7" fill="#f05d23" stroke="#17324d" stroke-opacity="0.15" />
<text x="520" y="559" class="bar-label" fill="#ffffff">Wire SSE live_patch → hook</text>
<rect x="0" y="578" width="240" height="102" fill="#f3ede2" />
<rect x="240" y="578" width="528" height="102" fill="#f3ede2" />
<text x="24" y="634.0" class="track-label">✅ QA</text>
<line x1="0" y1="578" x2="768" y2="578" stroke="#ddd3be" stroke-width="1" />
<line x1="0" y1="612" x2="768" y2="612" stroke="#ddd3be" stroke-width="1" />
<line x1="0" y1="646" x2="768" y2="646" stroke="#ddd3be" stroke-width="1" />
<line x1="0" y1="680" x2="768" y2="680" stroke="#ddd3be" stroke-width="1" />
<rect x="642" y="584" width="120" height="22" rx="7" ry="7" fill="#8c5cf5" stroke="#17324d" stroke-opacity="0.15" />
<text x="652" y="601" class="bar-label" fill="#ffffff">Lint + typecheck</text>
<rect x="642" y="618" width="120" height="22" rx="7" ry="7" fill="#8c5cf5" stroke="#17324d" stroke-opacity="0.15" />
<text x="652" y="635" class="bar-label" fill="#ffffff">bun run build</text>
<rect x="642" y="652" width="120" height="22" rx="7" ry="7" fill="#577590" stroke="#17324d" stroke-opacity="0.15" />
<text x="652" y="669" class="bar-label" fill="#ffffff">node --check server.js + pariscore.js</text>
</svg>