<?xml version="1.0" encoding="UTF-8"?>
<svg xmlns="http://www.w3.org/2000/svg" width="748" height="632" viewBox="0 0 748 632" font-family="Segoe UI, system-ui, -apple-system, sans-serif">
<style>
  .bg { fill: #0b0e17; }
  .grid-bg { fill: #131722; }
  .grid-line { stroke: #1f2533; stroke-width: 1; }
  .weekend { fill: #161b29; }
  .title { fill: #e6edf3; font-size: 18px; font-weight: 700; }
  .subtitle { fill: #8b949e; font-size: 11px; }
  .track-name { fill: #c9d1d9; font-size: 12px; font-weight: 600; }
  .track-bg { fill: #0f141e; }
  .header-date { fill: #8b949e; font-size: 10px; text-anchor: middle; }
  .item { fill: #00e676; }
  .item-critical { fill: #ff6b6b; }
  .item-premium { fill: #0077ff; }
  .item-setup { fill: #a371f7; }
  .item-done { fill: #2ea043; }
  .item-label { fill: #e6edf3; font-size: 11px; }
  .sep { stroke: #1f2533; stroke-width: 1; }
</style>
<rect class="bg" width="748" height="632"/>
<text class="title" x="20" y="32">PariScore — Refonte Onglet Tennis + Recherche + Vraies Heures (Phases 7-9)</text>
<text class="subtitle" x="20" y="50">6 jours · 3 tracks · 14 tâches · généré 2026-07-20</text>
<rect class="grid-bg" x="220" y="60" width="504" height="30"/>
<line class="grid-line" x1="220" y1="60" x2="220" y2="622"/>
<text class="header-date" x="262" y="79">20/07</text>
<line class="grid-line" x1="304" y1="60" x2="304" y2="622"/>
<text class="header-date" x="346" y="79">21/07</text>
<line class="grid-line" x1="388" y1="60" x2="388" y2="622"/>
<text class="header-date" x="430" y="79">22/07</text>
<line class="grid-line" x1="472" y1="60" x2="472" y2="622"/>
<text class="header-date" x="514" y="79">23/07</text>
<line class="grid-line" x1="556" y1="60" x2="556" y2="622"/>
<text class="header-date" x="598" y="79">24/07</text>
<line class="grid-line" x1="640" y1="60" x2="640" y2="622"/>
<text class="header-date" x="682" y="79">25/07</text>
<line class="grid-line" x1="724" y1="60" x2="724" y2="622"/>
<rect class="track-bg" x="0" y="92" width="216" height="28" rx="3"/>
<text class="track-name" x="10" y="110">P7 — Structure onglet ten…</text>
<rect class="item item" x="224" y="94" width="76" height="24" rx="4"/>
<text class="item-label" x="230" y="110">Refactor TennisTabContent en 3 sous-o…</text>
<rect class="track-bg" x="0" y="124" width="216" height="28" rx="3"/>
<text class="track-name" x="10" y="142">P7 — Structure onglet ten…</text>
<rect class="item item" x="224" y="126" width="76" height="24" rx="4"/>
<text class="item-label" x="230" y="142">SubTabs component (Live/Today/Tournam…</text>
<rect class="track-bg" x="0" y="156" width="216" height="28" rx="3"/>
<text class="track-name" x="10" y="174">P7 — Structure onglet ten…</text>
<rect class="item item" x="224" y="158" width="160" height="24" rx="4"/>
<text class="item-label" x="230" y="174">TournamentsList (grille tournois ATP/…</text>
<rect class="track-bg" x="0" y="188" width="216" height="28" rx="3"/>
<text class="track-name" x="10" y="206">P7 — Structure onglet ten…</text>
<rect class="item item" x="308" y="190" width="76" height="24" rx="4"/>
<text class="item-label" x="314" y="206">API /api/tennis/tournaments (ATP/WTA/…</text>
<rect class="track-bg" x="0" y="234" width="216" height="28" rx="3"/>
<text class="track-name" x="10" y="252">P8 — Module recherche jou…</text>
<rect class="item item" x="392" y="236" width="76" height="24" rx="4"/>
<text class="item-label" x="398" y="252">PlayerSearchBar (autocomplete debounc…</text>
<rect class="track-bg" x="0" y="266" width="216" height="28" rx="3"/>
<text class="track-name" x="10" y="284">P8 — Module recherche jou…</text>
<rect class="item item" x="392" y="268" width="76" height="24" rx="4"/>
<text class="item-label" x="398" y="284">TournamentSearchBar (autocomplete tou…</text>
<rect class="track-bg" x="0" y="298" width="216" height="28" rx="3"/>
<text class="track-name" x="10" y="316">P8 — Module recherche jou…</text>
<rect class="item item" x="392" y="300" width="160" height="24" rx="4"/>
<text class="item-label" x="398" y="316">API /api/tennis/search?q= (joueurs + …</text>
<rect class="track-bg" x="0" y="330" width="216" height="28" rx="3"/>
<text class="track-name" x="10" y="348">P8 — Module recherche jou…</text>
<rect class="item item" x="476" y="332" width="76" height="24" rx="4"/>
<text class="item-label" x="482" y="348">PlayerProfilePage /tournament/[slug] …</text>
<rect class="track-bg" x="0" y="362" width="216" height="28" rx="3"/>
<text class="track-name" x="10" y="380">P8 — Module recherche jou…</text>
<rect class="item item" x="476" y="364" width="76" height="24" rx="4"/>
<text class="item-label" x="482" y="380">Index DB prisma players + tournaments…</text>
<rect class="track-bg" x="0" y="408" width="216" height="28" rx="3"/>
<text class="track-name" x="10" y="426">P9 — Vraies heures via Te…</text>
<rect class="item item" x="560" y="410" width="76" height="24" rx="4"/>
<text class="item-label" x="566" y="426">Scraper TennisTemple (ATP/WTA schedul…</text>
<rect class="track-bg" x="0" y="440" width="216" height="28" rx="3"/>
<text class="track-name" x="10" y="458">P9 — Vraies heures via Te…</text>
<rect class="item item" x="560" y="442" width="76" height="24" rx="4"/>
<text class="item-label" x="566" y="458">Normaliser les heures → UTC ISO + tim…</text>
<rect class="track-bg" x="0" y="472" width="216" height="28" rx="3"/>
<text class="track-name" x="10" y="490">P9 — Vraies heures via Te…</text>
<rect class="item item" x="560" y="474" width="160" height="24" rx="4"/>
<text class="item-label" x="566" y="490">Merge schedule TennisTemple → matches…</text>
<rect class="track-bg" x="0" y="504" width="216" height="28" rx="3"/>
<text class="track-name" x="10" y="522">P9 — Vraies heures via Te…</text>
<rect class="item item" x="644" y="506" width="76" height="24" rx="4"/>
<text class="item-label" x="650" y="522">API /api/tennis/schedule (cache 5min,…</text>
<rect class="track-bg" x="0" y="536" width="216" height="28" rx="3"/>
<text class="track-name" x="10" y="554">P9 — Vraies heures via Te…</text>
<rect class="item item" x="644" y="538" width="76" height="24" rx="4"/>
<text class="item-label" x="650" y="554">Afficher vraie heure match dans Match…</text>
<line class="sep" x1="0" y1="60" x2="748" y2="60"/>
</svg>