<svg xmlns="http://www.w3.org/2000/svg" font-family="Inter,Roboto,sans-serif" width="1010" height="954"><rect width="100%" height="100%" fill="#0e1420"/><text x="505" y="30" text-anchor="middle" fill="#ffffff" font-size="18" font-weight="700">PariScore — Tâches à faire (19-26 juillet)</text><text x="230" y="62" fill="#8b9bb5" font-size="11">Date</text><text x="220" y="62" fill="#8b9bb5" font-size="10" text-anchor="middle">Lun 20</text><line x1="230" y1="64" x2="230" y2="914" stroke="rgba(255,255,255,0.05)" stroke-width="1"/><text x="330" y="62" fill="#8b9bb5" font-size="10" text-anchor="middle">Mar 21</text><line x1="340" y1="64" x2="340" y2="914" stroke="rgba(255,255,255,0.05)" stroke-width="1"/><text x="440" y="62" fill="#8b9bb5" font-size="10" text-anchor="middle">Mer 22</text><line x1="450" y1="64" x2="450" y2="914" stroke="rgba(255,255,255,0.05)" stroke-width="1"/><text x="550" y="62" fill="#8b9bb5" font-size="10" text-anchor="middle">Jeu 23</text><line x1="560" y1="64" x2="560" y2="914" stroke="rgba(255,255,255,0.05)" stroke-width="1"/><text x="660" y="62" fill="#8b9bb5" font-size="10" text-anchor="middle">Ven 24</text><line x1="670" y1="64" x2="670" y2="914" stroke="rgba(255,255,255,0.05)" stroke-width="1"/><text x="770" y="62" fill="#8b9bb5" font-size="10" text-anchor="middle">Sam 25</text><line x1="780" y1="64" x2="780" y2="914" stroke="rgba(255,255,255,0.05)" stroke-width="1"/><text x="880" y="62" fill="#8b9bb5" font-size="10" text-anchor="middle">Dim 26</text><line x1="890" y1="64" x2="890" y2="914" stroke="rgba(255,255,255,0.05)" stroke-width="1"/><rect x="40" y="76" width="930" height="26" fill="#00e67622" rx="4"/><text x="52" y="93" fill="#00e676" font-size="13" font-weight="700">SetPoint (nouvelle route)</text><rect x="40" y="106" width="930" height="28" fill="#172132" rx="3"/><text x="52" y="124" fill="#e0e0e0" font-size="12">Error boundary + edge cases</text><rect x="224" y="110" width="102" height="20" fill="#00e676" rx="3" opacity="0.85"/><text x="275" y="124" text-anchor="middle" fill="#fff" font-size="10" font-weight="600">07-20 → 07-20</text><rect x="40" y="136" width="930" height="28" fill="#1a2538" rx="3"/><text x="52" y="154" fill="#e0e0e0" font-size="12">Mobile responsive QA</text><rect x="224" y="140" width="212" height="20" fill="#00e676" rx="3" opacity="0.85"/><text x="330" y="154" text-anchor="middle" fill="#fff" font-size="10" font-weight="600">07-20 → 07-21</text><rect x="40" y="166" width="930" height="28" fill="#172132" rx="3"/><text x="52" y="184" fill="#e0e0e0" font-size="12">Tennis-live refresh SSE</text><rect x="334" y="170" width="102" height="20" fill="#00e676" rx="3" opacity="0.85"/><text x="385" y="184" text-anchor="middle" fill="#fff" font-size="10" font-weight="600">07-21 → 07-21</text><rect x="40" y="196" width="930" height="28" fill="#1a2538" rx="3"/><text x="52" y="214" fill="#e0e0e0" font-size="12">SetPoint QA + deploy</text><rect x="334" y="200" width="212" height="20" fill="#00e676" rx="3" opacity="0.85"/><text x="440" y="214" text-anchor="middle" fill="#fff" font-size="10" font-weight="600">07-21 → 07-22</text><rect x="40" y="234" width="930" height="26" fill="#0077ff22" rx="4"/><text x="52" y="251" fill="#0077ff" font-size="13" font-weight="700">Tennis React Migration</text><rect x="40" y="264" width="930" height="28" fill="#172132" rx="3"/><text x="52" y="282" fill="#e0e0e0" font-size="12">Live stats panel — edge cases</text><rect x="224" y="268" width="212" height="20" fill="#0077ff" rx="3" opacity="0.85"/><text x="330" y="282" text-anchor="middle" fill="#fff" font-size="10" font-weight="600">07-20 → 07-21</text><rect x="40" y="294" width="930" height="28" fill="#1a2538" rx="3"/><text x="52" y="312" fill="#e0e0e0" font-size="12">Migrer odds-comparator → React</text><rect x="334" y="298" width="212" height="20" fill="#0077ff" rx="3" opacity="0.85"/><text x="440" y="312" text-anchor="middle" fill="#fff" font-size="10" font-weight="600">07-21 → 07-22</text><rect x="40" y="324" width="930" height="28" fill="#172132" rx="3"/><text x="52" y="342" fill="#e0e0e0" font-size="12">Migrer probability-bar/ring → React</text><rect x="444" y="328" width="212" height="20" fill="#0077ff" rx="3" opacity="0.85"/><text x="550" y="342" text-anchor="middle" fill="#fff" font-size="10" font-weight="600">07-22 → 07-23</text><rect x="40" y="354" width="930" height="28" fill="#1a2538" rx="3"/><text x="52" y="372" fill="#e0e0e0" font-size="12">Cleanup 7 legacy fn (suite)</text><rect x="554" y="358" width="102" height="20" fill="#0077ff" rx="3" opacity="0.85"/><text x="605" y="372" text-anchor="middle" fill="#fff" font-size="10" font-weight="600">07-23 → 07-23</text><rect x="40" y="392" width="930" height="26" fill="#ff6b3522" rx="4"/><text x="52" y="409" fill="#ff6b35" font-size="13" font-weight="700">Match Card Refinement</text><rect x="40" y="422" width="930" height="28" fill="#172132" rx="3"/><text x="52" y="440" fill="#e0e0e0" font-size="12">Skeleton loading states</text><rect x="224" y="426" width="212" height="20" fill="#ff6b35" rx="3" opacity="0.85"/><text x="330" y="440" text-anchor="middle" fill="#fff" font-size="10" font-weight="600">07-20 → 07-21</text><rect x="40" y="452" width="930" height="28" fill="#1a2538" rx="3"/><text x="52" y="470" fill="#e0e0e0" font-size="12">allOdds empty/null guards</text><rect x="334" y="456" width="102" height="20" fill="#ff6b35" rx="3" opacity="0.85"/><text x="385" y="470" text-anchor="middle" fill="#fff" font-size="10" font-weight="600">07-21 → 07-21</text><rect x="40" y="482" width="930" height="28" fill="#172132" rx="3"/><text x="52" y="500" fill="#e0e0e0" font-size="12">Missing data fallbacks UI</text><rect x="444" y="486" width="102" height="20" fill="#ff6b35" rx="3" opacity="0.85"/><text x="495" y="500" text-anchor="middle" fill="#fff" font-size="10" font-weight="600">07-22 → 07-22</text><rect x="40" y="520" width="930" height="26" fill="#ffd70022" rx="4"/><text x="52" y="537" fill="#ffd700" font-size="13" font-weight="700">DR Chart Polish</text><rect x="40" y="550" width="930" height="28" fill="#172132" rx="3"/><text x="52" y="568" fill="#e0e0e0" font-size="12">Null/partial data edge cases</text><rect x="444" y="554" width="102" height="20" fill="#ffd700" rx="3" opacity="0.85"/><text x="495" y="568" text-anchor="middle" fill="#fff" font-size="10" font-weight="600">07-22 → 07-22</text><rect x="40" y="580" width="930" height="28" fill="#1a2538" rx="3"/><text x="52" y="598" fill="#e0e0e0" font-size="12">Tooltip UX amélioration</text><rect x="444" y="584" width="212" height="20" fill="#ffd700" rx="3" opacity="0.85"/><text x="550" y="598" text-anchor="middle" fill="#fff" font-size="10" font-weight="600">07-22 → 07-23</text><rect x="40" y="610" width="930" height="28" fill="#172132" rx="3"/><text x="52" y="628" fill="#e0e0e0" font-size="12">Perf audit (re-renders)</text><rect x="554" y="614" width="102" height="20" fill="#ffd700" rx="3" opacity="0.85"/><text x="605" y="628" text-anchor="middle" fill="#fff" font-size="10" font-weight="600">07-23 → 07-23</text><rect x="40" y="648" width="930" height="26" fill="#a855f722" rx="4"/><text x="52" y="665" fill="#a855f7" font-size="13" font-weight="700">Backend &amp; Ops</text><rect x="40" y="678" width="930" height="28" fill="#172132" rx="3"/><text x="52" y="696" fill="#e0e0e0" font-size="12">Stripe DG — pricing decision</text><rect x="334" y="682" width="212" height="20" fill="#a855f7" rx="3" opacity="0.85"/><text x="440" y="696" text-anchor="middle" fill="#fff" font-size="10" font-weight="600">07-21 → 07-22</text><rect x="40" y="708" width="930" height="28" fill="#1a2538" rx="3"/><text x="52" y="726" fill="#e0e0e0" font-size="12">Stripe DG — frontend CTAs</text><rect x="444" y="712" width="322" height="20" fill="#a855f7" rx="3" opacity="0.85"/><text x="605" y="726" text-anchor="middle" fill="#fff" font-size="10" font-weight="600">07-22 → 07-24</text><rect x="40" y="738" width="930" height="28" fill="#172132" rx="3"/><text x="52" y="756" fill="#e0e0e0" font-size="12">Sackmann purge Phase 4.2+</text><rect x="554" y="742" width="322" height="20" fill="#a855f7" rx="3" opacity="0.85"/><text x="715" y="756" text-anchor="middle" fill="#fff" font-size="10" font-weight="600">07-23 → 07-25</text><rect x="40" y="776" width="930" height="26" fill="#ef444422" rx="4"/><text x="52" y="793" fill="#ef4444" font-size="13" font-weight="700">QA Global</text><rect x="40" y="806" width="930" height="28" fill="#172132" rx="3"/><text x="52" y="824" fill="#e0e0e0" font-size="12">Lint + typecheck</text><rect x="664" y="810" width="102" height="20" fill="#ef4444" rx="3" opacity="0.85"/><text x="715" y="824" text-anchor="middle" fill="#fff" font-size="10" font-weight="600">07-24 → 07-24</text><rect x="40" y="836" width="930" height="28" fill="#1a2538" rx="3"/><text x="52" y="854" fill="#e0e0e0" font-size="12">QA Playwright (4 personas)</text><rect x="664" y="840" width="212" height="20" fill="#ef4444" rx="3" opacity="0.85"/><text x="770" y="854" text-anchor="middle" fill="#fff" font-size="10" font-weight="600">07-24 → 07-25</text><rect x="40" y="866" width="930" height="28" fill="#172132" rx="3"/><text x="52" y="884" fill="#e0e0e0" font-size="12">Canary + health check</text><rect x="774" y="870" width="102" height="20" fill="#ef4444" rx="3" opacity="0.85"/><text x="825" y="884" text-anchor="middle" fill="#fff" font-size="10" font-weight="600">07-25 → 07-25</text><rect x="40" y="896" width="930" height="28" fill="#1a2538" rx="3"/><text x="52" y="914" fill="#e0e0e0" font-size="12">Déploiement prod</text><rect x="774" y="900" width="212" height="20" fill="#ef4444" rx="3" opacity="0.85"/><text x="880" y="914" text-anchor="middle" fill="#fff" font-size="10" font-weight="600">07-25 → 07-26</text></svg>