<?xml version="1.0" encoding="UTF-8"?>
<svg xmlns="http://www.w3.org/2000/svg" width="600" height="720" viewBox="0 0 600 720" font-family="Segoe UI, system-ui, -apple-system, sans-serif">
<style>
  .bg { fill: #0b0e17; }
  .grid-bg { fill: #131722; }
  .grid-line { stroke: #1f2533; stroke-width: 1; }
  .title { fill: #e6edf3; font-size: 17px; font-weight: 700; }
  .subtitle { fill: #8b949e; font-size: 11px; }
  .track-name { fill: #c9d1d9; font-size: 12px; font-weight: 600; }
  .track-bg { fill: #0f141e; }
  .header-date { fill: #8b949e; font-size: 10px; text-anchor: middle; }
  .item-diag { fill: #58a6ff; }
  .item-fix1 { fill: #2ea043; }
  .item-fix2 { fill: #d29922; }
  .item-qa { fill: #0077ff; }
  .item-deploy { fill: #a371f7; }
  .item-followup { fill: #6e7681; }
  .item-label { fill: #e6edf3; font-size: 11px; }
  .track-label { fill: #8b949e; font-size: 10px; font-weight: 600; text-transform: uppercase; letter-spacing: 0.05em; }
  .sep { stroke: #1f2533; stroke-width: 1; }
  .legend-box { fill: #131722; stroke: #1f2533; }
  .legend-text { fill: #c9d1d9; font-size: 10px; }
</style>
<rect class="bg" width="600" height="720"/>
<text class="title" x="20" y="32">MatchCard Hotfix R5 — Heure (timezone) + Ordre tournois (prestige)</text>
<text class="subtitle" x="20" y="50">3 jours · 5 tracks · 15 tâches · 7 agents affectés · généré 2026-07-21</text>

<rect class="grid-bg" x="300" y="60" width="272" height="30"/>
<line class="grid-line" x1="300" y1="60" x2="300" y2="700"/>
<text class="header-date" x="345" y="79">21/07 R5</text>
<line class="grid-line" x1="390" y1="60" x2="390" y2="700"/>
<text class="header-date" x="435" y="79">22/07 QA</text>
<line class="grid-line" x1="480" y1="60" x2="480" y2="700"/>
<text class="header-date" x="525" y="79">23/07 Suivi</text>
<line class="grid-line" x1="572" y1="60" x2="572" y2="700"/>

<text class="track-label" x="10" y="100">🐛 DIAGNOSTIC (4 INVESTIGATIONS PARALLÈLES)</text>
<line class="sep" x1="0" y1="105" x2="600" y2="105"/>

<rect class="track-bg" x="0" y="112" width="296" height="28" rx="3"/>
<text class="track-name" x="10" y="130">Bug heure : Intl sans timeZone → UTC…</text>
<rect class="item item-diag" x="304" y="114" width="84" height="24" rx="4"/>
<text class="item-label" x="310" y="130">✅ explorer (4 rapports)</text>

<rect class="track-bg" x="0" y="144" width="296" height="28" rx="3"/>
<text class="track-name" x="10" y="162">Bug ordre : useMatchFilter edge DESC…</text>
<rect class="item item-diag" x="304" y="146" width="84" height="24" rx="4"/>
<text class="item-label" x="310" y="162">✅ type TennisMatch sans cat</text>

<rect class="track-bg" x="0" y="176" width="296" height="28" rx="3"/>
<text class="track-name" x="10" y="194">Décisions produit (timezone + tri)</text>
<rect class="item item-diag" x="304" y="178" width="84" height="24" rx="4"/>
<text class="item-label" x="310" y="194">✅ TZ navigateur + prioriser</text>

<text class="track-label" x="10" y="228">🔧 BUG #1 — HEURE OFFICIELLE (TIMEZONE)</text>
<line class="sep" x1="0" y1="233" x2="600" y2="233"/>

<rect class="track-bg" x="0" y="240" width="296" height="28" rx="3"/>
<text class="track-name" x="10" y="258">Helper formatMatchDateTime + guard…</text>
<rect class="item item-fix1" x="304" y="242" width="84" height="24" rx="4"/>
<text class="item-label" x="310" y="258">frontend-developer</text>

<rect class="track-bg" x="0" y="272" width="296" height="28" rx="3"/>
<text class="track-name" x="10" y="290">Appliquer dans match-card-header…</text>
<rect class="item item-fix1" x="304" y="274" width="84" height="24" rx="4"/>
<text class="item-label" x="310" y="290">frontend-developer</text>

<rect class="track-bg" x="0" y="304" width="296" height="28" rx="3"/>
<text class="track-name" x="10" y="322">Appliquer dans match-detail-dialog…</text>
<rect class="item item-fix1" x="304" y="306" width="84" height="24" rx="4"/>
<text class="item-label" x="310" y="322">frontend-developer</text>

<text class="track-label" x="10" y="356">🔧 BUG #2 — ORDRE TOURNOIS (PRESTIGE)</text>
<line class="sep" x1="0" y1="361" x2="600" y2="361"/>

<rect class="track-bg" x="0" y="368" width="296" height="28" rx="3"/>
<text class="track-name" x="10" y="386">Créer tournament-priority.ts…</text>
<rect class="item item-fix2" x="304" y="370" width="84" height="24" rx="4"/>
<text class="item-label" x="310" y="386">backend-architect</text>

<rect class="track-bg" x="0" y="400" width="296" height="28" rx="3"/>
<text class="track-name" x="10" y="418">Étendre TennisMatch + peupler…</text>
<rect class="item item-fix2" x="304" y="402" width="84" height="24" rx="4"/>
<text class="item-label" x="310" y="418">backend-architect</text>

<rect class="track-bg" x="0" y="432" width="296" height="28" rx="3"/>
<text class="track-name" x="10" y="450">Modifier useMatchFilter (priority ASC)…</text>
<rect class="item item-fix2" x="304" y="434" width="84" height="24" rx="4"/>
<text class="item-label" x="310" y="450">frontend-developer</text>

<text class="track-label" x="10" y="484">🎯 QUALITY ASSURANCE — REVUE VISUELLE + CODE</text>
<line class="sep" x1="0" y1="489" x2="600" y2="489"/>

<rect class="track-bg" x="0" y="496" width="296" height="28" rx="3"/>
<text class="track-name" x="10" y="514">Typecheck + Lint…</text>
<rect class="item item-qa" x="304" y="498" width="84" height="24" rx="4"/>
<text class="item-label" x="310" y="514">code-reviewer</text>

<rect class="track-bg" x="0" y="528" width="296" height="28" rx="3"/>
<text class="track-name" x="10" y="546">QA Playwright mobile+desktop…</text>
<rect class="item item-qa" x="394" y="530" width="84" height="24" rx="4"/>
<text class="item-label" x="400" y="546">qa-junior + qa-senior</text>

<rect class="track-bg" x="0" y="560" width="296" height="28" rx="3"/>
<text class="track-name" x="10" y="578">Code Review final (template)…</text>
<rect class="item item-qa" x="394" y="562" width="84" height="24" rx="4"/>
<text class="item-label" x="400" y="578">code-reviewer</text>

<text class="track-label" x="10" y="612">🚀 DÉPLOIEMENT &amp; SUIVI</text>
<line class="sep" x1="0" y1="617" x2="600" y2="617"/>

<rect class="track-bg" x="0" y="624" width="296" height="28" rx="3"/>
<text class="track-name" x="10" y="642">Commit + push + deploy VPS + graphify…</text>
<rect class="item item-deploy" x="394" y="626" width="84" height="24" rx="4"/>
<text class="item-label" x="400" y="642">orchestrator + sre</text>

<rect class="track-bg" x="0" y="656" width="296" height="28" rx="3"/>
<text class="track-name" x="10" y="674">Tickets suivi #1 (mergeSchedules) + #2…</text>
<rect class="item item-followup" x="484" y="658" width="84" height="24" rx="4"/>
<text class="item-label" x="490" y="674">backend-architect</text>

<rect class="legend-box" x="20" y="690" width="560" height="24" rx="4"/>
<rect class="item-diag" x="34" y="697" width="10" height="10" rx="2"/>
<text class="legend-text" x="50" y="705">Diagnostic</text>
<rect class="item-fix1" x="120" y="697" width="10" height="10" rx="2"/>
<text class="legend-text" x="136" y="705">Bug #1 Heure</text>
<rect class="item-fix2" x="210" y="697" width="10" height="10" rx="2"/>
<text class="legend-text" x="226" y="705">Bug #2 Ordre</text>
<rect class="item-qa" x="300" y="697" width="10" height="10" rx="2"/>
<text class="legend-text" x="316" y="705">QA/Review</text>
<rect class="item-deploy" x="380" y="697" width="10" height="10" rx="2"/>
<text class="legend-text" x="396" y="705">Déploiement</text>
<rect class="item-followup" x="470" y="697" width="10" height="10" rx="2"/>
<text class="legend-text" x="486" y="705">Suivi futur</text>
</svg>
