<?xml version="1.0" encoding="UTF-8"?>
<!-- PariScore Logo Concept B - PS Monogram + rising trend (geometric) -->
<svg xmlns="http://www.w3.org/2000/svg" width="1024" height="1024" viewBox="0 0 1024 1024">
  <defs>
    <radialGradient id="bg" cx="50%" cy="45%" r="70%">
      <stop offset="0%" stop-color="#0c1220"/>
      <stop offset="100%" stop-color="#05070d"/>
    </radialGradient>
    <linearGradient id="gA" x1="0" y1="1" x2="1" y2="0">
      <stop offset="0%" stop-color="#00e676"/>
      <stop offset="100%" stop-color="#29b6f6"/>
    </linearGradient>
    <linearGradient id="gB" x1="1" y1="0" x2="0" y2="1">
      <stop offset="0%" stop-color="#f59e0b"/>
      <stop offset="100%" stop-color="#ef4444"/>
    </linearGradient>
    <radialGradient id="halo" cx="50%" cy="50%" r="50%">
      <stop offset="0%" stop-color="#00e676" stop-opacity="0.25"/>
      <stop offset="100%" stop-color="#00e676" stop-opacity="0"/>
    </radialGradient>
    <filter id="glow" x="-60%" y="-60%" width="220%" height="220%">
      <feGaussianBlur stdDeviation="18" result="b"/>
      <feMerge><feMergeNode in="b"/><feMergeNode in="SourceGraphic"/></feMerge>
    </filter>
  </defs>

  <rect width="1024" height="1024" fill="url(#bg)"/>
  <circle cx="512" cy="460" r="350" fill="url(#halo)"/>
  <circle cx="512" cy="460" r="330" fill="none" stroke="#1b2436" stroke-width="3"/>

  <g transform="translate(512 460)">
    <polygon points="0,-230 200,-140 200,140 0,230 -200,140 -200,-140" fill="none" stroke="#00e676" stroke-width="10" stroke-linejoin="round" filter="url(#glow)" opacity="0.6"/>
    <polygon points="0,-230 200,-140 200,140 0,230 -200,140 -200,-140" fill="none" stroke="#00e676" stroke-width="6" stroke-linejoin="round"/>
    <polygon points="0,-160 120,-80 120,80 0,160 -120,80 -120,-80" fill="none" stroke="#16202f" stroke-width="2"/>

    <path d="M -150 60 C -80 10, -40 -30, 20 -60 L 130 -20" fill="none" stroke="url(#gA)" stroke-width="16" stroke-linecap="round" filter="url(#glow)" opacity="0.7"/>
    <path d="M -150 60 C -80 10, -40 -30, 20 -60 L 130 -20" fill="none" stroke="url(#gA)" stroke-width="9" stroke-linecap="round"/>

    <circle cx="-150" cy="60" r="16" fill="#f7ec49"/>
    <circle cx="20" cy="-60" r="16" fill="#e8761f"/>
    <polygon points="145,-18 118,6 134,14" fill="#00e676"/>
    <polygon points="145,-18 118,6 134,14" fill="none" stroke="#00e676" stroke-width="3" filter="url(#glow)"/>
  </g>

  <text x="512" y="850" text-anchor="middle" font-family="Arial, sans-serif" font-weight="900" font-size="150" fill="#ffffff">P<tspan fill="#00e676">S</tspan></text>
  <text x="512" y="930" text-anchor="middle" font-family="Arial, sans-serif" font-weight="600" font-size="44" letter-spacing="12" fill="#8fa0b8">PARISCORE</text>
</svg>