<svg version="1.2" xmlns="http://www.w3.org/2000/svg" viewBox="0 0 250 250" width="250" height="250">
<style>
 .s0 { fill: #fefefe } 
 .s1 { fill: #0f2249 } 
 .s2 { fill: #6790d4 } 
</style>
	<g>
		<path class="s0" d="m116.5 0.1c-0.6 0.1-2 0.2-3.1 0.3-1.1 0.1-2.7 0.3-3.6 0.4-0.9 0.1-2.5 0.3-3.6 0.5-1.1 0.2-2.5 0.4-3.1 0.5-0.6 0.1-1.8 0.3-2.8 0.5-1 0.2-2.2 0.5-2.8 0.6-0.5 0.1-2.1 0.5-3.5 0.9-1.3 0.3-3.3 0.8-4.2 1.1-1 0.3-3 0.9-4.4 1.4-1.4 0.4-2.9 1-3.4 1.1-0.4 0.2-1.4 0.6-2 0.8-0.7 0.3-1.7 0.7-2.4 1-0.6 0.2-1.7 0.7-2.5 1-0.8 0.4-3.2 1.5-5.3 2.5-2.1 1.1-4.6 2.3-5.5 2.9-1 0.5-2.7 1.5-3.9 2.2-1.1 0.7-3.2 2-4.6 2.9-1.3 0.9-3.5 2.4-4.7 3.3-1.2 0.9-2.9 2.2-3.9 3-0.9 0.7-1.8 1.5-2 1.6-0.2 0.2-0.9 0.8-1.5 1.3-0.6 0.5-1.8 1.6-2.6 2.3-0.9 0.8-2.9 2.7-4.5 4.4-1.7 1.6-3.6 3.6-4.4 4.5-0.7 0.8-1.8 2-2.3 2.6-0.5 0.6-1.1 1.3-1.3 1.5-0.1 0.2-0.9 1.1-1.6 2-0.8 1-2.1 2.7-3 3.9-0.9 1.2-2.4 3.4-3.3 4.7-0.9 1.4-2.2 3.5-2.9 4.6-0.7 1.2-1.7 2.9-2.2 3.9-0.6 0.9-1.8 3.4-2.9 5.5-1 2.1-2.1 4.5-2.5 5.3-0.3 0.8-0.8 1.9-1 2.5-0.3 0.7-0.7 1.7-1 2.4-0.2 0.6-0.6 1.6-0.8 2-0.1 0.5-0.7 2-1.1 3.4-0.5 1.4-1.1 3.4-1.4 4.4-0.3 0.9-0.8 2.9-1.1 4.2-0.4 1.4-0.8 3-0.9 3.5-0.1 0.6-0.4 1.8-0.6 2.8-0.2 1-0.4 2.2-0.5 2.8-0.1 0.6-0.3 2-0.5 3.1-0.2 1.1-0.4 2.7-0.5 3.6-0.1 0.9-0.3 2.5-0.4 3.5-0.1 1-0.2 2.5-0.3 3.2 0 0.8-0.1 4.6-0.1 8.5 0 3.9 0.1 7.7 0.1 8.5 0.1 0.7 0.2 2.2 0.3 3.2 0.1 1 0.3 2.6 0.4 3.5 0.1 0.9 0.3 2.5 0.5 3.6 0.2 1.1 0.4 2.5 0.5 3.1 0.1 0.6 0.3 1.8 0.5 2.8 0.2 1 0.5 2.2 0.6 2.8 0.1 0.5 0.5 2.1 0.9 3.5 0.3 1.3 0.8 3.3 1.1 4.2 0.3 1 0.9 3 1.4 4.4 0.4 1.4 1 2.9 1.1 3.4 0.2 0.4 0.6 1.4 0.8 2 0.3 0.7 0.7 1.7 1 2.4 0.2 0.6 0.7 1.7 1 2.5 0.4 0.8 1.5 3.2 2.5 5.3 1.1 2.1 2.3 4.6 2.9 5.5 0.5 1 1.5 2.7 2.2 3.9 0.7 1.1 1.8 2.9 2.5 3.9 0.7 1.1 1.6 2.4 2.1 3.1 0.4 0.7 1.3 1.9 2 2.8 0.7 0.9 1.8 2.4 2.6 3.4 0.7 0.9 1.5 1.8 1.6 2 0.2 0.2 0.8 0.9 1.3 1.5 0.5 0.6 1.6 1.8 2.3 2.6 0.8 0.9 2.7 2.9 4.4 4.5 1.6 1.7 3.6 3.6 4.5 4.4 0.8 0.7 2 1.8 2.6 2.3 0.6 0.5 1.3 1.1 1.5 1.3 0.2 0.1 1.1 0.9 2 1.6 1 0.8 2.5 1.9 3.4 2.6 0.9 0.7 2.1 1.6 2.8 2 0.7 0.5 2 1.4 3.1 2.1 1 0.7 2.8 1.8 3.9 2.5 1.2 0.7 2.9 1.7 3.9 2.2 0.9 0.6 3.4 1.8 5.5 2.9 2.1 1 4.5 2.1 5.3 2.5 0.8 0.3 1.9 0.8 2.5 1 0.7 0.3 1.7 0.7 2.4 1 0.6 0.2 1.6 0.6 2 0.8 0.5 0.1 1.9 0.6 3.2 1.1 1.3 0.4 3.1 1 4 1.2 0.9 0.3 1.8 0.6 2 0.6 0.2 0.1 1.6 0.4 3 0.8 1.5 0.4 3.2 0.8 3.8 0.9 0.6 0.1 1.7 0.4 2.4 0.5 0.8 0.2 2 0.4 2.7 0.5 0.7 0.1 2.1 0.4 3.2 0.5 1 0.2 2.6 0.4 3.5 0.5 0.9 0.1 2.5 0.3 3.5 0.4 1 0.1 2.5 0.2 3.2 0.3 0.8 0 4.6 0.1 8.5 0.1 3.9 0 7.7-0.1 8.5-0.1 0.7-0.1 2.2-0.2 3.2-0.3 1-0.1 2.6-0.3 3.5-0.4 0.9-0.1 2.5-0.3 3.5-0.5 1.1-0.1 2.5-0.4 3.2-0.5 0.7-0.1 1.9-0.3 2.7-0.5 0.7-0.1 1.8-0.4 2.4-0.5 0.6-0.1 2.3-0.5 3.8-0.9 1.4-0.4 2.8-0.7 3-0.8 0.2 0 1.1-0.3 2-0.6 0.9-0.2 2.7-0.8 4-1.2 1.3-0.5 2.7-1 3.2-1.1 0.4-0.2 1.4-0.6 2-0.8 0.7-0.3 1.7-0.7 2.4-1 0.6-0.2 1.7-0.7 2.5-1 0.8-0.4 3.2-1.5 5.3-2.5 2.1-1.1 4.6-2.3 5.5-2.9 1-0.5 2.7-1.5 3.9-2.2 1.1-0.7 2.9-1.8 3.9-2.5 1.1-0.7 2.4-1.6 3.1-2.1 0.7-0.4 1.9-1.3 2.8-2 0.9-0.7 2.4-1.8 3.4-2.6 0.9-0.7 1.8-1.5 2-1.6 0.2-0.2 0.9-0.8 1.5-1.3 0.6-0.5 1.8-1.6 2.6-2.3 0.9-0.8 2.9-2.7 4.5-4.4 1.7-1.6 3.6-3.6 4.4-4.5 0.7-0.8 1.8-2 2.3-2.6 0.5-0.6 1.1-1.3 1.3-1.5 0.1-0.2 0.9-1.1 1.6-2 0.8-1 1.9-2.5 2.6-3.4 0.7-0.9 1.6-2.1 2-2.8 0.5-0.7 1.4-2 2.1-3.1 0.7-1 1.8-2.8 2.5-3.9 0.7-1.2 1.7-2.9 2.2-3.9 0.6-0.9 1.8-3.4 2.9-5.5 1-2.1 2.1-4.5 2.5-5.3 0.3-0.8 0.8-1.9 1-2.5 0.3-0.7 0.7-1.7 1-2.4 0.2-0.6 0.6-1.6 0.8-2 0.1-0.5 0.7-2 1.1-3.4 0.5-1.4 1.1-3.4 1.4-4.4 0.3-0.9 0.8-2.9 1.1-4.2 0.4-1.4 0.8-3 0.9-3.5 0.1-0.6 0.4-1.8 0.6-2.8 0.2-1 0.4-2.2 0.5-2.8 0.1-0.6 0.3-2 0.5-3.1 0.2-1.1 0.4-2.7 0.5-3.6 0.1-0.9 0.3-2.5 0.4-3.5 0.1-1 0.2-2.5 0.3-3.2 0-0.8 0.1-4.6 0.1-8.5 0-3.9-0.1-7.7-0.1-8.5-0.1-0.7-0.2-2.2-0.3-3.2-0.1-1-0.3-2.6-0.4-3.5-0.1-0.9-0.3-2.5-0.5-3.6-0.2-1.1-0.4-2.5-0.5-3.1-0.1-0.6-0.3-1.8-0.5-2.8-0.2-1-0.5-2.2-0.6-2.8-0.1-0.5-0.5-2.1-0.9-3.5-0.3-1.3-0.8-3.3-1.1-4.2-0.3-1-0.9-3-1.4-4.4-0.4-1.4-1-2.9-1.1-3.4-0.2-0.4-0.6-1.4-0.8-2-0.3-0.7-0.7-1.7-1-2.4-0.2-0.6-0.7-1.7-1-2.5-0.4-0.8-1.5-3.2-2.5-5.3-1.1-2.1-2.3-4.6-2.9-5.5-0.5-1-1.5-2.7-2.2-3.9-0.7-1.1-2-3.2-2.9-4.6-0.9-1.3-2.4-3.5-3.3-4.7-0.9-1.2-2.2-2.9-3-3.9-0.7-0.9-1.5-1.8-1.6-2-0.2-0.2-0.8-0.9-1.3-1.5-0.5-0.6-1.6-1.8-2.3-2.6-0.8-0.9-2.7-2.9-4.4-4.5-1.6-1.7-3.6-3.6-4.5-4.4-0.8-0.7-2-1.8-2.6-2.3-0.6-0.5-1.3-1.1-1.5-1.3-0.2-0.1-1.1-0.9-2-1.6-1-0.8-2.7-2.1-3.9-3-1.2-0.9-3.4-2.4-4.7-3.3-1.4-0.9-3.5-2.2-4.6-2.9-1.2-0.7-2.9-1.7-3.9-2.2-0.9-0.6-3.4-1.8-5.5-2.9-2.1-1-4.5-2.1-5.3-2.5-0.8-0.3-1.9-0.8-2.5-1-0.7-0.3-1.7-0.7-2.4-1-0.6-0.2-1.6-0.6-2-0.8-0.5-0.1-2-0.7-3.4-1.1-1.4-0.5-3.4-1.1-4.4-1.4-0.9-0.3-2.9-0.8-4.2-1.1-1.4-0.4-3-0.8-3.5-0.9-0.6-0.1-1.8-0.4-2.8-0.6-1-0.2-2.2-0.4-2.8-0.5-0.6-0.1-2-0.3-3.1-0.5-1.1-0.2-2.7-0.4-3.6-0.5-0.9-0.1-2.5-0.3-3.5-0.4-1-0.1-2.5-0.2-3.2-0.3-0.8 0-4.7-0.1-8.7-0.1-4 0-7.7 0.1-8.3 0.1z"/>
		<path class="s1" d="m119.2 5.1c-1.2 0.1-3.4 0.2-4.9 0.4-1.4 0.1-3.5 0.3-4.7 0.5-1.2 0.1-3.1 0.4-4.3 0.6-1.3 0.2-3.2 0.6-4.4 0.8-1.1 0.2-3.7 0.8-5.7 1.3-1.9 0.5-4.5 1.3-5.8 1.7-1.3 0.4-3.3 1-4.6 1.5-1.2 0.4-3.4 1.2-4.8 1.8-1.4 0.6-3.5 1.5-4.6 2-1.2 0.5-3.4 1.6-4.9 2.3-1.5 0.8-3.8 2-5.1 2.8-1.3 0.8-3.4 2-4.5 2.7-1.2 0.8-2.9 1.9-3.7 2.5-0.9 0.6-2.5 1.7-3.5 2.5-1.1 0.7-2.6 1.9-3.3 2.5-0.8 0.6-2.1 1.7-2.8 2.3-0.8 0.6-2 1.7-2.7 2.3-0.8 0.7-2.6 2.5-4.2 4-1.5 1.6-3.6 3.7-4.5 4.7-1 1.1-2.5 2.8-3.3 3.8-0.9 1-2.3 2.8-3.2 3.9-0.8 1.1-2.3 3.1-3.2 4.4-0.9 1.3-2.2 3.3-3 4.5-0.7 1.1-1.9 3.2-2.7 4.4-0.7 1.3-1.9 3.6-2.7 5.2-0.8 1.5-1.9 3.7-2.4 4.9-0.5 1.1-1.4 3.2-2 4.6-0.6 1.4-1.4 3.6-1.8 4.8-0.5 1.3-1.1 3.3-1.5 4.6-0.4 1.3-1.2 3.9-1.7 5.8-0.5 2-1.1 4.6-1.3 5.7-0.2 1.2-0.6 3.1-0.8 4.3-0.2 1.2-0.5 3.1-0.6 4.3-0.2 1.2-0.4 3.3-0.5 4.7-0.1 1.4-0.3 3.8-0.4 5.4-0.1 1.6-0.1 4.1-0.1 5.5 0 1.4 0 3.8 0.1 5.3 0.1 1.5 0.2 3.6 0.3 4.6 0.1 1 0.3 2.9 0.4 4.2 0.2 1.3 0.5 3.4 0.7 4.6 0.2 1.3 0.5 3.1 0.7 4.1 0.2 1.1 0.6 2.9 0.8 4.1 0.3 1.2 0.8 3 1 4 0.3 1.1 0.8 2.8 1.2 4 0.3 1.2 1 3.3 1.5 4.8 0.6 1.4 1.4 3.6 1.8 4.7 0.5 1.2 1.2 3 1.7 3.9 0.4 1 1.2 2.7 1.7 3.8 0.5 1.1 1.6 3.2 2.4 4.7 0.8 1.5 2.1 3.6 2.8 4.8 0.7 1.2 2 3.2 2.8 4.6 0.9 1.3 2.3 3.3 3.1 4.4 0.8 1.1 2.3 3 3.3 4.3 1 1.3 2.6 3.2 3.5 4.2 0.9 1 3.3 3.6 5.5 5.7 2.1 2.1 4.7 4.6 5.9 5.6 1.1 1 3 2.6 4.3 3.6 1.2 1 3.4 2.6 4.8 3.6 1.4 1 3.6 2.5 4.8 3.3 1.2 0.7 3.1 1.9 4.3 2.6 1.2 0.7 3.3 1.9 4.8 2.7 1.4 0.7 3.9 2 5.5 2.7 1.6 0.7 4.2 1.9 5.8 2.5 1.6 0.6 4.5 1.7 6.3 2.3 1.8 0.6 4.1 1.3 5.1 1.6 1 0.3 2.9 0.8 4.3 1.1 1.4 0.4 3.6 0.9 4.7 1.1 1.2 0.2 2.9 0.6 3.9 0.7 0.9 0.2 2.6 0.4 3.7 0.6 1.2 0.1 3 0.4 4.1 0.5 1.2 0.1 3.2 0.3 4.4 0.4 1.4 0.1 4.9 0.1 8.1 0.1 3.1 0 6.6 0 7.9-0.1 1.2-0.1 3.1-0.3 4.4-0.4 1.2-0.1 3.3-0.4 4.6-0.6 1.4-0.2 3.6-0.5 4.9-0.8 1.3-0.2 3.5-0.7 5-1 1.5-0.4 3.7-0.9 4.8-1.2 1.2-0.4 3.4-1 4.9-1.5 1.5-0.4 3.8-1.2 5.2-1.8 1.3-0.5 3.4-1.3 4.6-1.8 1.1-0.5 3.2-1.4 4.6-2 1.4-0.7 3.6-1.8 5-2.6 1.4-0.7 3.5-1.8 4.6-2.5 1.1-0.7 3-1.8 4.1-2.5 1.1-0.7 2.8-1.9 3.8-2.6 1.1-0.7 2.5-1.7 3.3-2.3 0.8-0.6 2.2-1.7 3.2-2.5 1-0.8 2.5-2.1 3.4-2.8 0.9-0.8 2.8-2.5 4.2-3.9 1.4-1.3 3.5-3.4 4.6-4.6 1.2-1.2 2.9-3.1 3.7-4.1 0.9-1 2.4-2.9 3.4-4.1 1-1.2 2.6-3.4 3.6-4.7 0.9-1.4 2.5-3.6 3.3-5 0.9-1.4 2.2-3.6 3-4.8 0.7-1.3 1.9-3.6 2.7-5.2 0.8-1.5 1.9-3.7 2.4-4.9 0.5-1.1 1.4-3.2 2-4.6 0.6-1.4 1.4-3.6 1.8-4.8 0.5-1.3 1.1-3.3 1.5-4.6 0.4-1.3 1.2-3.9 1.7-5.8 0.5-2 1.1-4.6 1.3-5.7 0.2-1.2 0.6-3.1 0.8-4.4 0.2-1.2 0.5-3.1 0.6-4.3 0.2-1.2 0.4-3.2 0.5-4.6 0.1-1.4 0.3-3.8 0.4-5.4 0.1-1.6 0.1-4.1 0.1-5.5 0-1.4 0-3.8-0.1-5.3-0.1-1.5-0.3-3.9-0.4-5.3-0.1-1.4-0.3-3.5-0.5-4.7-0.1-1.2-0.4-3.1-0.6-4.3-0.2-1.3-0.6-3.2-0.8-4.4-0.2-1.1-0.8-3.7-1.3-5.7-0.5-1.9-1.3-4.5-1.7-5.8-0.4-1.3-1-3.3-1.5-4.6-0.4-1.2-1.2-3.4-1.8-4.8-0.6-1.4-1.5-3.5-2-4.6-0.5-1.2-1.6-3.4-2.4-4.9-0.8-1.6-2-3.9-2.7-5.2-0.8-1.2-2-3.3-2.7-4.4-0.8-1.2-2-3-2.7-4-0.7-1-2-2.8-2.9-4-0.8-1.2-2.2-2.9-3.1-4-0.8-1-2.4-2.8-3.4-4-1.1-1.2-3.4-3.6-5.1-5.3-1.7-1.7-4-3.8-5-4.7-1.1-0.9-3.1-2.6-4.5-3.7-1.3-1.1-3.6-2.8-5.1-3.9-1.4-1-3.7-2.6-5.1-3.5-1.4-0.9-3.6-2.2-4.9-2.9-1.2-0.7-3.5-2-5.1-2.8-1.5-0.8-3.8-1.9-5-2.4-1.2-0.6-3.6-1.6-5.3-2.2-1.7-0.7-4.1-1.6-5.4-2.1-1.3-0.4-3.5-1.1-5-1.5-1.4-0.4-3.5-1-4.6-1.3-1.1-0.3-2.6-0.6-3.3-0.8-0.7-0.2-2.1-0.4-3.1-0.6-0.9-0.2-2.9-0.6-4.4-0.8-1.6-0.2-3.7-0.5-4.8-0.6-1.1-0.2-3.2-0.4-4.8-0.5-1.5-0.1-4.9-0.2-7.6-0.3-2.7 0-5.9 0-7.1 0.1z"/>
		<path class="s2" d="m120 10.1c-1.3 0.1-3.3 0.2-4.4 0.3-1 0.1-3 0.3-4.3 0.4-1.3 0.2-3.6 0.5-5 0.7-1.5 0.3-3.6 0.6-4.7 0.9-1.2 0.2-3.4 0.7-5.1 1.2-1.6 0.4-4 1-5.3 1.4-1.3 0.4-3.2 1.1-4.3 1.5-1.1 0.3-3 1-4.2 1.5-1.1 0.5-2.6 1.1-3.2 1.4-0.7 0.2-1.6 0.7-2.2 0.9-0.6 0.3-2.2 1.1-3.6 1.7-1.3 0.7-3.7 2-5.2 2.8-1.4 0.8-3.8 2.2-5.2 3.1-1.4 0.9-3.7 2.5-5.1 3.5-1.4 1-3.6 2.7-4.9 3.7-1.3 1-3.1 2.5-4.1 3.4-0.9 0.8-2.2 2-2.9 2.6-0.6 0.6-1.8 1.8-2.5 2.5-0.8 0.8-2 2-2.8 2.9-0.8 0.8-2.2 2.3-3.1 3.4-0.9 1-2.2 2.6-3 3.6-0.7 0.9-1.9 2.4-2.5 3.3-0.7 0.9-2 2.7-2.9 4.1-0.9 1.3-2.2 3.3-2.9 4.5-0.7 1.2-1.8 3-2.3 4.1-0.6 1-1.6 2.9-2.2 4.2-0.7 1.2-1.7 3.3-2.3 4.6-0.5 1.4-1.4 3.4-1.8 4.5-0.5 1.1-1.2 3-1.5 4.1-0.4 1.1-1.1 3-1.5 4.3-0.4 1.3-1 3.7-1.4 5.3-0.5 1.7-1 4.1-1.3 5.5-0.3 1.4-0.7 3.5-0.9 4.7-0.1 1.2-0.4 3-0.5 4-0.2 1-0.4 2.9-0.5 4.1-0.1 1.3-0.2 4.1-0.3 6.3-0.2 3-0.2 4.9 0 7.9 0.1 2.1 0.2 5 0.3 6.3 0.2 1.3 0.4 3.2 0.5 4.1 0.1 1 0.4 2.9 0.6 4.4 0.3 1.4 0.6 3.5 0.9 4.6 0.2 1.2 0.7 3.4 1.2 5.1 0.4 1.6 1.1 4 1.5 5.4 0.4 1.3 1.1 3.4 1.5 4.7 0.5 1.3 1.1 2.8 1.3 3.3 0.2 0.5 0.8 2 1.3 3.3 0.6 1.3 1.6 3.5 2.3 5 0.7 1.5 1.8 3.5 2.3 4.5 0.5 1 1.5 2.7 2.1 3.8 0.7 1.1 1.8 3 2.6 4.1 0.8 1.2 2.1 3.1 2.9 4.2 0.8 1.2 2.3 3.1 3.2 4.3 0.9 1.2 2.4 3 3.3 4 0.9 1.1 2.4 2.7 3.2 3.6 0.9 0.9 2.1 2.2 2.8 2.8 0.7 0.7 1.8 1.8 2.5 2.4 0.7 0.7 2.1 2 3 2.8 1 0.9 2.6 2.2 3.5 2.9 0.9 0.8 2.6 2 3.6 2.8 1.1 0.8 3 2.2 4.4 3.1 1.3 0.9 3.3 2.2 4.5 2.9 1.2 0.7 3.1 1.8 4.3 2.5 1.1 0.6 3.4 1.8 4.9 2.5 1.6 0.8 4 1.9 5.3 2.4 1.3 0.6 3 1.3 3.7 1.5 0.7 0.3 2.4 0.9 3.7 1.4 1.3 0.5 3.6 1.2 5 1.6 1.5 0.4 4 1.1 5.6 1.5 1.6 0.4 3.7 0.8 4.8 1.1 1.1 0.2 2.9 0.5 4 0.7 1.2 0.2 3 0.4 4 0.5 1 0.2 2.9 0.4 4.1 0.5 1.3 0.1 4.1 0.2 6.2 0.3 3 0.2 4.9 0.2 7.9 0 2.2-0.1 5.1-0.2 6.4-0.3 1.3-0.2 3.2-0.4 4.1-0.5 1-0.1 2.6-0.3 3.6-0.5 1-0.1 3.1-0.5 4.7-0.8 1.5-0.3 4.1-0.9 5.8-1.4 1.6-0.4 4-1.1 5.4-1.5 1.3-0.4 3.2-1 4.2-1.3 0.9-0.4 2.4-0.9 3.2-1.2 0.9-0.4 2.7-1.1 4.1-1.7 1.4-0.6 4-1.8 5.7-2.7 1.8-0.8 4.4-2.3 5.9-3.1 1.5-0.9 3.8-2.3 5.1-3.1 1.4-0.9 3.4-2.2 4.6-3.1 1.2-0.8 3.1-2.3 4.3-3.2 1.2-1 3.1-2.5 4.2-3.5 1.1-0.9 2.7-2.3 3.5-3.1 0.8-0.8 2.2-2.1 3-2.9 0.8-0.9 2.2-2.3 3.1-3.3 0.9-1 2.4-2.7 3.4-3.8 0.9-1.2 2.4-3 3.2-4.1 0.8-1.1 2.2-2.9 2.9-4 0.8-1.1 2-2.9 2.7-4 0.8-1.1 2-3.3 2.9-4.8 0.8-1.5 2.2-4 3.1-5.7 0.8-1.7 2.1-4.4 2.8-6.1 0.7-1.7 1.8-4.4 2.4-6 0.5-1.6 1.4-4.1 1.8-5.5 0.4-1.5 1.2-4.2 1.6-6.1 0.5-1.8 1.1-4.6 1.4-6 0.3-1.5 0.6-3.5 0.8-4.6 0.1-1.1 0.3-2.6 0.4-3.3 0.1-0.7 0.3-2.3 0.4-3.5 0.1-1.3 0.2-4.1 0.3-6.3 0.2-3 0.2-4.9 0-7.9-0.1-2.1-0.2-4.9-0.3-6.2-0.1-1.2-0.3-3.1-0.5-4.1-0.1-1-0.3-2.8-0.5-4-0.2-1.1-0.5-2.9-0.7-4-0.3-1.1-0.8-3.3-1.2-5-0.4-1.8-1.1-4.4-1.5-5.8-0.5-1.4-1.2-3.6-1.6-4.8-0.4-1.2-1-3-1.4-3.9-0.4-0.9-0.9-2.3-1.3-3.1-0.3-0.8-0.9-2.2-1.4-3.1-0.4-0.9-1.2-2.6-1.8-3.8-0.6-1.3-1.4-2.7-1.6-3.2-0.3-0.5-0.8-1.2-1-1.7-0.2-0.4-1-1.7-1.7-2.9-0.7-1.2-1.8-2.9-2.4-3.8-0.6-0.9-1.7-2.4-2.4-3.4-0.7-1-2-2.8-2.9-3.9-0.9-1.2-2.3-2.9-3.1-3.8-0.8-0.9-2.1-2.5-3-3.4-0.9-0.9-2.2-2.3-2.9-3.1-0.8-0.7-2.1-2-3-2.9-0.9-0.8-2.5-2.3-3.6-3.2-1-0.9-2.8-2.4-3.9-3.3-1.2-0.8-3.1-2.3-4.4-3.2-1.2-0.9-3.3-2.3-4.7-3.2-1.3-0.8-3.6-2.2-5.1-3.1-1.5-0.8-4-2.2-5.7-3.1-1.7-0.8-4.4-2.1-6.1-2.8-1.7-0.7-4.2-1.7-5.6-2.2-1.4-0.5-3.5-1.2-4.6-1.6-1.1-0.3-2.7-0.8-3.5-1.1-0.9-0.2-2.9-0.7-4.4-1.1-1.6-0.4-3.9-0.9-5.2-1.1-1.2-0.3-3.2-0.6-4.5-0.8-1.2-0.2-3.1-0.4-4.2-0.6-1-0.1-2.7-0.2-3.7-0.3-1-0.1-3.2-0.2-4.9-0.3-1.7-0.1-4-0.1-5.1-0.1-1.1 0-3.1 0-4.5 0.1z"/>
		<path class="s1" d="m118.9 44.2c-0.9 0.1-2.7 0.2-3.9 0.4-1.3 0.2-3.3 0.5-4.6 0.7-1.3 0.2-3.2 0.7-4.4 1-1.2 0.2-3.1 0.8-4.4 1.2-1.3 0.4-3.5 1.1-4.9 1.6-1.3 0.5-3.3 1.3-4.3 1.8-1 0.4-2.6 1.1-3.5 1.6-0.9 0.4-2.4 1.2-3.4 1.8-0.9 0.5-2.5 1.4-3.4 2-1 0.6-2.4 1.5-3.1 2.1-0.8 0.5-2.2 1.5-3.1 2.2-1 0.8-2.7 2.2-3.8 3.1-1.1 0.9-3 2.7-4.3 4-1.2 1.2-2.6 2.6-3 3-0.4 0.5-0.9 1.1-1.1 1.3-0.2 0.3-1.1 1.3-1.9 2.4-0.8 1-2 2.5-2.6 3.3-0.6 0.8-1.4 2.1-1.9 2.8-0.5 0.7-1.4 2.1-2 3.2-0.7 1.1-1.7 3-2.3 4.2-0.6 1.1-1.5 2.8-1.9 3.7-0.4 0.9-1 2.5-1.4 3.4-0.4 1-0.9 2.4-1.1 3.2-0.2 0.7-0.4 2-0.5 2.9-0.1 0.9-0.2 2.5-0.2 3.6 0 1.1 0.1 2.7 0.2 3.6 0.1 0.9 0.3 2.1 0.5 2.9 0.2 0.7 0.5 1.9 0.8 2.6 0.3 0.8 0.9 2.3 1.4 3.3 0.5 1 1.3 2.5 1.9 3.4 0.5 0.8 1.4 1.9 1.9 2.5 0.5 0.6 2.1 2.5 3.5 4.2 1.5 1.7 3.6 4.3 4.7 5.7 1.1 1.4 2.6 3.3 3.3 4.2 0.6 0.9 1.6 2.2 2.2 3 0.5 0.8 1.4 2.1 1.9 2.9 0.5 0.7 1.4 2.2 2 3.2 0.5 0.9 1.5 2.7 2 3.8 0.6 1.1 1.4 2.8 1.8 3.8 0.4 0.9 0.9 2.4 1.2 3.4 0.4 0.9 0.8 2.2 0.9 2.7 0.2 0.6 0.5 1.9 0.7 2.8 0.2 0.9 0.5 3 0.8 4.6 0.3 1.6 0.6 3.9 0.8 5.1 0.1 1.3 0.4 3.3 0.5 4.6 0.1 1.3 0.3 3.2 0.3 4.3 0.1 1 0.3 3.6 0.3 5.6 0.1 2.1 0.2 4.3 0.3 5 0.1 1 0.2 1.3 0.5 1.7 0.2 0.3 0.9 0.8 1.8 1.4 0.8 0.5 2.5 1.4 3.7 2 1.2 0.6 3.1 1.6 4.3 2.1 1.2 0.5 3.2 1.3 4.6 1.8 1.3 0.5 3.3 1.2 4.5 1.6 1.2 0.3 3.2 0.9 4.4 1.2 1.3 0.3 3.3 0.7 4.6 1 1.3 0.2 3.4 0.5 4.6 0.7 1.2 0.1 3.3 0.3 4.6 0.4 1.5 0.1 4.1 0.2 7.2 0.1 2.9 0 5.5-0.1 6.9-0.3 1.1-0.1 3.4-0.4 5.1-0.7 1.6-0.3 4.3-0.8 5.9-1.2 1.6-0.4 4.1-1.1 5.5-1.6 1.4-0.5 3.7-1.3 5.1-1.8 1.4-0.6 3.9-1.7 5.6-2.6 1.7-0.8 4.2-2.2 5.6-3 1.3-0.8 2.9-1.7 3.4-2.1 0.6-0.4 1.8-1.2 2.6-1.8 0.8-0.6 1.7-1.3 2-1.6 0.3-0.3 0.7-0.7 0.8-1 0.1-0.2 0.2-0.6 0.2-0.9 0-0.2-0.1-0.7-0.2-0.9-0.1-0.3-0.4-0.7-0.6-0.9-0.2-0.2-0.6-0.5-0.8-0.5-0.2-0.1-0.8-0.2-1.2-0.2-0.5 0-1.5-0.1-2.3-0.1-0.8-0.1-2.2-0.3-2.9-0.5-0.8-0.1-2.4-0.6-3.5-0.9-1-0.4-2.8-1.1-3.8-1.6-1-0.5-2.5-1.4-3.3-1.9-0.8-0.6-2-1.4-2.7-1.9-0.6-0.4-1.6-1.3-2.2-1.8-0.5-0.5-1.7-1.6-2.6-2.5-0.9-0.9-2.2-2.4-3-3.2-0.7-0.9-1.8-2.2-2.3-3-0.6-0.8-1.6-2.2-2.2-3.1-0.7-1-1.6-2.4-2.1-3.3-0.5-0.8-1-1.5-1-1.5 0 0-0.4-0.8-0.8-1.6-0.5-0.9-1.4-2.7-2.1-4-0.6-1.3-1.5-3.2-1.9-4.2-0.4-1-0.9-2.5-1.2-3.3-0.3-0.9-0.7-2.3-0.9-3.2-0.2-0.9-0.6-2.5-0.8-3.4-0.2-1-0.5-2.7-0.6-3.7-0.2-1.1-0.4-2.9-0.5-4.1-0.2-1.4-0.3-4.3-0.4-7.7 0-4.3 0-6.1 0.2-8.5 0.1-1.7 0.4-4.1 0.5-5.4 0.2-1.3 0.5-3.5 0.7-4.9 0.3-1.4 0.7-3.5 0.9-4.6 0.2-1.1 0.6-2.8 0.9-3.9 0.3-1 0.7-2.5 0.9-3.3 0.3-0.8 0.7-2.2 1.1-3.2 0.3-1 0.8-2.3 1-2.9 0.3-0.5 0.8-1.9 1.3-2.9 0.4-1 1.8-3.8 3-6.3 1.2-2.5 2.5-5.2 2.8-6 0.4-0.9 0.9-2.3 1.1-3.2 0.3-0.9 0.6-2.2 0.7-2.8 0.1-0.6 0.3-1.9 0.5-2.8 0.1-0.9 0.2-2.3 0.2-3.2 0-0.8-0.1-2.1-0.2-2.8-0.2-0.7-0.4-1.8-0.5-2.3-0.2-0.6-0.6-1.7-1-2.5-0.4-0.8-1-1.9-1.3-2.4-0.4-0.5-1.1-1.4-1.8-2.1-0.6-0.6-1.5-1.4-2-1.8-0.6-0.3-1.4-0.8-2-1-0.5-0.3-1.4-0.6-2-0.7-0.5-0.2-1.4-0.4-2-0.5-0.6-0.1-3.5-0.2-6.5-0.2-2.9 0-6.1 0-7 0.1zm31 4.5c-0.3 0.2-0.7 0.5-0.9 0.8-0.3 0.4-0.3 0.7-0.3 1.4 0 0.6 0.1 1.2 0.4 2.1 0.2 0.6 0.6 1.9 0.8 2.8 0.3 1.3 0.3 1.9 0.3 4.8 0 2.7 0 3.5-0.3 5.1-0.2 1-0.5 2.5-0.7 3.3-0.2 0.7-0.6 2.1-0.8 2.9-0.3 0.9-0.9 2.4-1.3 3.3-0.4 1-1.6 3.5-2.7 5.6-1 2.2-2.2 4.7-2.6 5.6-0.4 0.9-1 2.2-1.3 3-0.4 0.8-1 2.6-1.4 3.9-0.5 1.4-1.2 3.6-1.5 5-0.4 1.4-0.9 3.8-1.2 5.3-0.3 1.6-0.7 4-0.9 5.4-0.2 1.4-0.5 3.7-0.7 5.1-0.2 2-0.2 3.9-0.2 8.7 0 4.9 0 6.6 0.2 8.5 0.2 1.2 0.4 2.9 0.5 3.7 0.1 0.8 0.3 2 0.4 2.6 0.2 0.7 0.5 2.2 0.7 3.3 0.3 1.1 0.8 2.9 1.2 4 0.3 1 0.9 2.7 1.3 3.7 0.4 1 1.4 3 2.2 4.6 0.8 1.6 2 3.7 2.6 4.7 0.6 1 1.5 2.5 2.1 3.3 0.5 0.8 1.5 2.2 2.2 3.1 0.7 0.9 1.7 2.3 2.4 3 0.6 0.8 1.8 2.1 2.7 2.9 0.8 0.9 2 2 2.6 2.5 0.6 0.5 1.6 1.3 2.3 1.8 0.7 0.5 2 1.3 2.8 1.8 0.8 0.4 2.2 1.1 3 1.5 0.9 0.3 2.3 0.8 3.2 1 0.8 0.3 2 0.5 2.7 0.6 0.6 0.1 2.4 0.2 3.9 0.2 2.1 0 3 0 4-0.2 0.7-0.2 1.9-0.5 2.7-0.7 0.7-0.3 2-0.8 2.8-1.2 0.8-0.4 2.1-1.1 2.9-1.6 0.7-0.5 1.9-1.3 2.5-1.8 0.6-0.6 1.6-1.5 2.2-2.1 0.6-0.7 1.4-1.6 1.7-2 0.3-0.5 1.2-1.9 2-3.2 0.8-1.2 2-3.5 2.8-5.1 0.8-1.5 1.9-3.7 2.3-4.9 0.5-1.1 1.2-2.9 1.6-4 0.4-1 0.9-2.6 1.2-3.5 0.3-0.9 0.7-2.3 0.9-3 0.2-0.7 0.6-2.1 0.8-3.1 0.2-1 0.5-2.7 0.7-3.7 0.2-1.1 0.5-3 0.7-4.3 0.1-1.3 0.3-3.2 0.4-4.2 0.1-1.1 0.2-3.7 0.2-5.9 0-2.1-0.1-4.8-0.2-5.9-0.1-1-0.3-3-0.4-4.3-0.2-1.3-0.5-3.2-0.7-4.2-0.1-1.1-0.5-2.7-0.7-3.6-0.2-0.9-0.6-2.4-0.8-3.4-0.3-1-0.8-2.8-1.2-4-0.4-1.2-1.2-3.2-1.7-4.5-0.5-1.3-1.7-4-2.6-5.9-1-2-2.3-4.5-3-5.6-0.6-1.1-1.7-2.7-2.3-3.7-0.6-0.9-1.6-2.3-2.2-3.1-0.6-0.8-1.6-2.1-2.3-2.9-0.6-0.8-1.9-2.3-2.8-3.3-0.8-0.9-2.5-2.6-3.6-3.7-1.1-1.1-2.7-2.6-3.4-3.2-0.8-0.7-2.1-1.8-2.9-2.4-0.8-0.6-2.1-1.6-3-2.2-0.8-0.7-2.2-1.6-3.1-2.2-0.9-0.5-2.6-1.6-4-2.4-1.3-0.8-3.3-1.8-4.5-2.4-1.2-0.6-3-1.4-4.1-1.8-1-0.5-2.6-1.1-3.4-1.4-0.9-0.3-1.8-0.6-2.1-0.6-0.3 0-0.8 0.2-1.1 0.3zm-104.4 74c-0.3 0.1-0.7 0.5-0.9 0.7-0.2 0.3-0.5 0.6-0.5 0.9-0.1 0.2-0.1 1.9 0 3.8 0 1.9 0.2 4.4 0.4 5.8 0.1 1.3 0.4 3.2 0.5 4.2 0.2 0.9 0.5 2.4 0.6 3.2 0.2 0.7 0.5 2.3 0.8 3.4 0.3 1.1 0.7 2.6 0.9 3.4 0.2 0.8 0.7 2.1 0.9 2.9 0.3 0.8 1 2.5 1.5 3.8 0.4 1.2 1.3 3.2 1.8 4.4 0.6 1.1 1.5 3 2.1 4 0.5 1.1 1.4 2.6 1.8 3.3 0.5 0.8 1.3 2.1 1.8 2.9 0.5 0.8 1.5 2.2 2.2 3.1 0.7 1 1.7 2.3 2.2 3 0.6 0.7 1.8 2.1 2.7 3.2 1 1 2.7 2.9 3.9 4 1.2 1.2 2.6 2.6 3.2 3.1 0.6 0.5 1.2 0.9 1.4 1 0.2 0.1 0.6 0.1 0.9 0.1 0.3 0 0.8-0.1 1.1-0.2 0.2-0.1 0.6-0.3 0.8-0.6 0.2-0.2 0.5-0.7 0.5-1 0.2-0.5 0.2-1.4-0.1-4.6-0.2-2.2-0.5-5.3-0.7-6.8-0.1-1.5-0.5-3.7-0.7-4.9-0.2-1.3-0.5-3.2-0.8-4.4-0.2-1.2-0.6-2.9-0.9-3.8-0.3-1-0.8-2.5-1.1-3.4-0.3-0.9-0.9-2.3-1.3-3.2-0.4-0.8-1.1-2.3-1.6-3.2-0.5-1-1.5-2.6-2.1-3.6-0.7-1.1-1.9-2.9-2.7-4.2-0.9-1.2-2.3-3.1-3.2-4.2-0.9-1.2-2.4-3.1-3.5-4.4-1-1.2-3.1-3.7-4.5-5.4-1.5-1.8-3.2-3.8-3.7-4.5-0.5-0.8-1.2-1.5-1.4-1.6-0.2-0.2-0.7-0.3-1.1-0.4-0.4 0-0.8 0-1.2 0.2z"/>
		<path class="s0" d="m123.5 18c-0.1 0-0.1 0.2-0.1 0.3 0 0.1 0.2 0.2 0.4 0.3 0.4 0.2 0.4 0.2 0.3 0.7 0 0.3-0.6 1.7-1.2 3.1-0.6 1.4-1.9 4.2-2.8 6.3-0.9 2.1-1.9 4.3-2.2 4.9-0.3 0.6-0.6 1.2-0.7 1.3-0.1 0.1-0.4 0.2-0.6 0.2q-0.3 0.1-0.4 0.3c0 0.3 0.1 0.3 0.6 0.4 0.3 0.1 1.9 0.1 3.6 0.1 1.6 0.1 3.1 0.1 3.3 0.1 0.3 0 0.4-0.1 0.4-0.3q0-0.3-0.2-0.3c-0.1 0-0.3-0.2-0.5-0.3-0.2-0.2-0.2-0.4-0.1-0.7 0-0.2 0.1-0.4 0.2-0.5 0-0.1 0.5-0.1 1.3 0.1 0.7 0.1 1.9 0.2 2.8 0.3 0.8 0 1.9-0.1 2.4-0.2 0.5-0.1 1-0.1 1.1-0.1 0.1 0.1 0.2 0.3 0.2 0.5 0.1 0.3 0 0.5-0.1 0.7-0.1 0.1-0.3 0.2-0.6 0.2-0.3 0.1-0.3 0.2-0.3 0.5 0 0.3 0 0.3 1.3 0.3 0.7 0 2.5 0.1 3.9 0.1l2.7 0.1c0-0.6-0.1-0.7-0.4-0.9-0.3-0.1-0.5-0.4-0.8-0.9-0.2-0.4-0.8-2.1-1.5-3.7-0.6-1.6-1.7-4.7-2.5-6.8-0.8-2.1-1.6-4.1-1.6-4.3q-0.1-0.4 0.1-0.7c0.1-0.2 0.3-0.4 0.4-0.4 0.1 0 0.2-0.1 0.2-0.3 0-0.3 0-0.3-2.8-0.4-1.5-0.1-3.5-0.1-4.2-0.1-0.8 0-1.5 0-1.6 0.1zm-17.4 1.3c-1.8 0.5-3.4 0.9-3.5 0.9-0.1 0.1-0.2 0.2-0.1 0.4 0 0.2 0.2 0.3 0.6 0.3q0.5 0 0.8 0.3c0.2 0.2 0.6 1.4 1.2 3.9 0.5 1.9 0.9 3.6 0.9 3.8 0 0.1-0.1 0.2-0.1 0.2-0.1 0-0.6-0.3-1.1-0.7-0.6-0.3-2.7-1.8-4.8-3.2-2-1.4-3.7-2.6-3.7-2.6 0-0.1-0.1-0.2-0.2-0.4l-0.3-0.3c-6.5 1.5-6.6 1.5-6.5 1.9q0.2 0.3 0.5 0.2c0.1 0 0.4 0.1 0.7 0.2 0.3 0.2 0.5 0.4 0.5 0.7 0.1 0.2 0.9 3.5 1.8 7.2 0.9 3.7 1.7 6.9 1.7 7.1q0 0.5-0.4 0.8c-0.1 0.2-0.4 0.3-0.5 0.3-0.1 0-0.1 0.2-0.1 0.3 0 0.2 0 0.3 0.1 0.4 0.1 0 1.7-0.3 3.5-0.7 1.8-0.5 3.4-0.9 3.5-0.9 0.2 0 0.3-0.2 0.3-0.4 0-0.3-0.1-0.4-0.6-0.4-0.4 0-0.6-0.1-0.8-0.3-0.3-0.2-0.6-1.3-1.3-4.4-0.6-2.2-1-4.1-1-4.2 0-0.1 0-0.2 0.1-0.2 0.1 0 0.9 0.5 1.8 1.1 0.9 0.7 3.1 2.1 4.8 3.3 1.8 1.3 3.4 2.4 3.7 2.7 0.2 0.2 0.5 0.5 0.6 0.7 0.1 0.2 0.2 0.2 2.3-0.3 1.2-0.3 2.2-0.5 2.2-0.5 0.1-0.1-0.8-3.6-1.8-7.9-1.1-4.4-2-8.1-2-8.3 0-0.2 0.2-0.6 0.4-0.8 0.2-0.2 0.4-0.3 0.5-0.3 0.1 0 0.1-0.2 0.1-0.4q0-0.3-0.2-0.3c-0.1 0-1.8 0.4-3.6 0.8zm36.5 2.2l-1.3 2.5c0.7 0.3 0.8 0.3 1.1 0.1 0.1-0.2 0.5-0.4 0.7-0.5 0.2-0.1 0.7-0.1 0.9-0.1 0.3 0.1 1.5 0.4 2.7 0.7 1.1 0.3 2.1 0.6 2.2 0.6 0.1 0.1-0.6 2.7-1.4 5.8-0.8 3.1-1.6 5.9-1.7 6.2-0.2 0.2-0.4 0.5-0.6 0.5-0.1 0.1-0.4 0.1-0.6 0.1-0.3 0-0.4 0-0.5 0.3 0 0.2 0 0.3 0 0.3 0 0 1.8 0.5 3.9 1.1 3.5 1 3.9 1 4.1 0.8 0.1-0.1 0.2-0.2 0.2-0.3 0 0-0.2-0.2-0.5-0.3-0.2-0.2-0.5-0.5-0.6-0.7-0.1-0.2 0.3-1.7 1.5-6.2 0.9-3.3 1.6-6 1.7-6 0-0.1 1.1 0.2 2.4 0.5 1.3 0.3 2.6 0.7 2.8 0.8 0.3 0.2 0.6 0.5 0.8 0.7 0.1 0.3 0.3 0.6 0.3 0.8 0 0.1 0.1 0.2 0.3 0.2l0.4-0.1c0.2-2.5 0.3-3.7 0.3-4.4l0.1-1.1c-1.1-0.2-4.8-1.1-9.1-2.3-4.3-1.1-8-2.2-8.3-2.3l-0.5-0.3zm-64.1 6.8c-2.4 1.3-3.3 1.9-3.3 2.1 0 0.2 0.1 0.2 0.7 0.2 0.7 0 0.7 0 1.1 0.4 0.2 0.3 1.2 1.9 2.1 3.5 0.9 1.7 1.7 3.1 1.7 3.2 0 0.1-0.1 0.1-0.2 0.1-0.1 0-2.5-0.7-5.3-1.7-3.3-1.1-5.3-1.8-5.7-2.1l-0.5-0.4c-5 2.8-5.7 3.3-5.7 3.5 0 0.2 0.1 0.2 0.7 0.2 0.6-0.1 0.8 0 1 0.3 0.2 0.2 0.8 1.1 1.3 2.1 0.6 1 1.7 3 2.5 4.5 0.9 1.4 2 3.5 2.6 4.5 0.6 1.1 1.1 2 1.1 2.3q0 0.4-0.4 0.8c-0.4 0.4-0.4 0.4-0.2 0.6 0.3 0.3 0.3 0.3 0.9-0.1 0.4-0.2 1.8-1 3.2-1.8 1.9-1 2.5-1.5 2.5-1.7 0-0.2-0.1-0.2-0.6-0.2-0.4 0-0.8 0-1-0.2-0.2-0.1-1-1.4-1.9-2.9-0.8-1.5-1.8-3.2-2.1-3.8-0.3-0.5-0.5-1.1-0.4-1.1 0.1-0.1 2.6 0.7 5.7 1.8 3 1 5.9 2 6.2 2.2 0.4 0.2 0.7 0.5 0.7 0.5q0 0.1 0.1 0.1c0.1 0 1.1-0.5 2.1-1 1.1-0.6 1.9-1.2 1.9-1.2 0-0.1-0.3-0.7-0.7-1.5-0.5-0.7-0.9-1.6-1.1-1.8-0.1-0.3-1.6-2.9-3.2-5.7-1.6-2.9-3-5.4-3-5.6-0.1-0.4 0-0.5 0.3-0.9 0.3-0.4 0.4-0.5 0.3-0.8-0.2-0.2-0.4-0.1-3.4 1.6zm89.7-0.9c0 0.2 0 0.4 0.3 0.6q0.4 0.3 0.4 0.8c0 0.3-0.9 2.3-3 6.5-1.6 3.3-3.1 6.3-3.3 6.6-0.1 0.3-0.4 0.7-0.6 0.8-0.2 0.2-0.5 0.2-0.9 0.2-0.4 0-0.5 0-0.6 0.2 0 0.2 0.8 0.7 3.6 2.1 3.5 1.7 3.7 1.8 3.8 1.5 0.2-0.2 0.2-0.3-0.2-0.7-0.2-0.2-0.4-0.5-0.4-0.7 0-0.3 1.4-3.2 3.2-7 2.1-4.2 3.3-6.6 3.6-6.8 0.3-0.3 0.5-0.4 0.9-0.3 0.5 0.1 0.6 0 0.7-0.2 0.1-0.2 0.1-0.4 0-0.4 0 0-1.7-0.8-3.7-1.8-1.9-1-3.6-1.8-3.6-1.8-0.1 0-0.1 0.2-0.2 0.4zm-113.6 16.9c-2.8 2.5-3 2.7-2.8 2.9 0.2 0.3 0.2 0.3 0.6 0.1 0.4-0.3 0.5-0.3 1-0.1 0.3 0.2 1.3 1.1 3.1 3.3 1.4 1.6 3.6 4.1 4.8 5.5 1.2 1.4 2.2 2.7 2.3 2.9q0.1 0.3-0.2 0.8c-0.3 0.4-0.3 0.5-0.2 0.7 0.1 0.1 0.2 0.2 0.3 0.2 0.1 0 0.8-0.7 1.7-1.4 0.9-0.8 2.3-2 3.1-2.7 1.2-1.1 1.4-1.3 1.3-1.5-0.1-0.2-0.2-0.3-0.2-0.3 0 0-0.3 0.1-0.5 0.3-0.4 0.1-0.6 0.2-0.9 0.1-0.2-0.1-0.8-0.7-1.5-1.4-0.6-0.7-2.3-2.7-3.8-4.4-1.5-1.7-3.2-3.7-3.7-4.3-0.6-0.6-1.1-1.3-1.2-1.5-0.1-0.2-0.1-0.5-0.1-0.7 0.1-0.1 0.2-0.3 0.3-0.5 0.2-0.1 0.2-0.3 0.1-0.5-0.1-0.1-0.2-0.3-0.3-0.3 0 0-1.5 1.3-3.2 2.8zm134.9 0.3c-0.5 0.2-1.4 0.5-1.9 0.8-0.6 0.2-1.4 0.8-1.9 1.3-0.5 0.5-1.2 1.3-1.6 1.8-0.3 0.5-0.7 1.3-0.9 1.7-0.1 0.4-0.3 1.2-0.4 1.6-0.1 0.5-0.2 1.2-0.2 1.5 0 0.4 0.1 1.2 0.3 1.8 0.1 0.6 0.4 1.6 0.6 2.1 0.2 0.6 0.7 1.4 1 1.9 0.3 0.5 1 1.4 1.4 1.9 0.4 0.5 1.3 1.3 1.9 1.7 0.7 0.5 1.7 1.1 2.3 1.4 0.6 0.3 1.6 0.7 2.1 0.8 0.6 0.2 1.4 0.3 2.5 0.3 1.3 0 1.8-0.1 2.6-0.3 0.5-0.2 1.3-0.6 1.8-0.8 0.4-0.3 1.2-0.9 1.6-1.3 0.5-0.4 1.1-1.2 1.5-1.7 0.3-0.5 0.7-1.3 0.9-1.7 0.1-0.4 0.3-1.1 0.4-1.5 0.1-0.5 0.2-1.3 0.2-2 0-0.6-0.1-1.5-0.2-2-0.2-0.5-0.4-1.4-0.6-1.9-0.3-0.5-0.6-1.2-0.8-1.6-0.3-0.4-0.8-1.1-1.2-1.6-0.4-0.5-1-1.1-1.4-1.4-0.3-0.3-1-0.8-1.5-1.2-0.5-0.3-1.4-0.8-1.9-1-0.6-0.2-1.5-0.5-2.1-0.6-0.5-0.1-1.5-0.2-2.2-0.2-0.7 0-1.7 0.1-2.3 0.2zm-144.1 8.4c-0.1 0.2-0.6 0.8-1.3 1.3-0.6 0.6-1.6 1.6-2.1 2.3-0.6 0.6-1.3 1.6-1.6 2.2-0.4 0.5-0.8 1.6-1.1 2.3-0.3 1-0.5 1.7-0.5 2.7-0.1 1 0 1.7 0.2 2.4 0.1 0.6 0.4 1.6 0.8 2.3 0.3 0.8 0.9 1.5 1.4 2 0.4 0.5 1 1.1 1.4 1.4 0.3 0.2 1 0.6 1.5 0.8 0.4 0.3 1.2 0.6 1.8 0.7 0.5 0.1 1.5 0.2 2.2 0.2q1.2 0 2.3-0.3c0.6-0.1 1.5-0.5 1.9-0.7 0.5-0.2 1.2-0.7 1.6-1 0.4-0.2 1.1-0.9 1.5-1.3 0.5-0.5 1.3-1.4 1.7-2.1 0.5-0.7 1.2-1.9 1.6-2.5 0.4-0.7 0.8-1.3 1-1.4 0.1-0.1 0.2-0.2 0.2-0.2 0-0.1-0.8-1.2-1.8-2.4-0.9-1.3-1.8-2.3-1.8-2.3-0.1 0-0.2 0.1-0.3 0.2-0.1 0.1-0.1 0.4 0 1 0.2 0.6 0.2 0.9 0.1 1.4-0.1 0.4-0.3 1-0.5 1.4-0.2 0.4-0.7 1.2-1.1 1.8-0.4 0.5-1.1 1.2-1.5 1.6-0.4 0.3-1 0.8-1.5 1-0.4 0.2-1.1 0.5-1.6 0.6-0.7 0.1-1.1 0.1-1.8-0.1-0.5-0.1-1.2-0.4-1.6-0.6-0.4-0.2-1-0.7-1.3-1-0.4-0.4-0.8-1-1-1.5-0.2-0.4-0.4-1.1-0.4-1.7-0.1-0.5 0-1.3 0.1-1.7 0.1-0.5 0.4-1.3 0.7-1.9 0.3-0.6 0.9-1.4 1.6-2.2 0.8-0.8 1.4-1.3 2-1.6 0.7-0.3 1-0.4 1.7-0.4 0.9 0 0.9 0 0.9-0.3 0-0.3-0.3-0.5-2.5-1.5-1.4-0.6-2.6-1.2-2.7-1.2-0.1 0-0.2 0.2-0.2 0.3zm166.4 9.2c-0.1 0.1-0.2 0.3-0.1 0.7q0.1 0.6-0.1 0.9c-0.1 0.2-2.6 1.8-6.5 4.1-3.5 2.1-6.5 3.8-6.8 3.8-0.3 0.1-0.5 0-0.8-0.3-0.2-0.2-0.4-0.3-0.5-0.3 0 0-0.2 0-0.3 0.1-0.1 0.2 0.2 0.9 1.9 3.6 1.1 1.9 2 3.5 2.1 3.6 0 0 0.2 0 0.3 0 0.2-0.1 0.2-0.2 0.2-0.7-0.1-0.3-0.1-0.7 0-0.9 0.1-0.2 1-0.8 1.9-1.4 1-0.5 1.8-0.9 1.8-0.9 0 0.1 0.5 0.9 1 1.8 0.5 0.8 1.3 2 1.7 2.6 0.5 0.5 1.1 1.3 1.5 1.6 0.3 0.3 1 0.8 1.4 1.1 0.4 0.3 1.2 0.6 1.7 0.7 0.7 0.2 1.2 0.3 2 0.2 0.8 0 1.3-0.2 2-0.5 0.5-0.3 1.2-0.8 1.8-1.4 0.8-0.8 1-1.1 1.3-2 0.3-0.9 0.3-1.3 0.2-2.2 0-0.7-0.2-1.6-0.5-2.5-0.2-0.7-0.7-1.8-1-2.4-0.3-0.6-1-1.9-1.6-2.8-0.5-0.9-1.7-2.8-2.6-4.1-0.9-1.4-1.7-2.5-1.7-2.5-0.1 0-0.2 0.1-0.3 0.1zm-182.2 13.6c-1.3 3-1.5 3.6-1.4 3.7 0.2 0 0.3 0.1 0.4 0.1 0.1 0 0.2-0.1 0.2-0.2 0 0 0.1-0.2 0.3-0.4 0.2-0.1 0.5-0.3 0.7-0.3 0.2 0 1.6 0.5 3 1.1 1.3 0.7 2.9 1.3 3.4 1.6 0.6 0.2 1 0.5 1 0.5-0.1 0.1-2.4 1-5.3 1.9-3.7 1.3-5.3 1.8-5.9 1.8h-0.7c-2 4.6-2.6 6.1-2.5 6.2 0 0.1 0.1 0.1 0.2 0.1 0.1 0 0.4-0.2 0.6-0.4 0.4-0.4 0.5-0.4 0.9-0.4 0.2 0.1 3.4 1.4 7 3 3.6 1.6 6.7 3 6.9 3.2 0.3 0.3 0.3 0.5 0.3 0.9 0 0.5 0 0.6 0.3 0.7 0.2 0.1 0.4-0.2 1.7-3.2 0.8-1.9 1.5-3.4 1.6-3.5 0-0.1-0.1-0.2-0.3-0.3-0.2-0.1-0.3 0-0.6 0.3-0.3 0.4-0.5 0.5-0.9 0.5-0.4-0.1-1.8-0.6-4.3-1.7-2.4-1.1-3.8-1.8-3.8-1.9 0-0.1 1.8-0.8 5.8-2.1 4.3-1.4 5.9-1.9 6.4-1.9h0.8c1.4-3.2 1.8-4.1 1.7-4.1 0-0.1-1.5-0.7-3.2-1.5-1.8-0.8-5.1-2.3-7.4-3.3-2.3-1-4.4-1.9-4.5-2.1-0.3-0.2-0.4-0.4-0.3-0.9 0-0.4 0-0.6-0.2-0.7-0.1-0.1-0.2-0.2-0.3-0.2 0 0-0.8 1.6-1.6 3.5zm194.6 9.3c-0.1 0-0.1 0.3-0.1 0.5 0 0.2 0 0.5-0.1 0.7-0.1 0.1-0.3 0.3-0.5 0.4-0.2 0.1-2.3 0.8-4.8 1.6-2.5 0.7-5.7 1.7-7.1 2.1-1.5 0.4-2.6 0.7-2.8 0.6-0.2 0-0.4-0.2-0.5-0.5-0.2-0.2-0.4-0.4-0.5-0.4-0.2 0-0.3 0.1-0.4 0.1 0 0.1 0.3 1.1 0.7 2.4 0.3 1.2 1.1 3.7 1.6 5.4 0.5 1.7 1.3 4.2 1.7 5.6 0.4 1.4 0.8 2.7 0.8 3 0 0.4 0 0.4 0.6 0.4 0.3 0 1.5-0.1 2.7-0.2 1.1-0.1 2.1-0.2 2.2-0.2 0.1 0 0.2-0.2 0.1-0.4 0-0.3-0.1-0.4-0.5-0.5-0.2-0.1-0.6-0.3-0.8-0.5-0.2-0.2-0.5-0.6-0.6-0.9-0.1-0.3-0.7-2.3-1.4-4.5-0.6-2.2-1.2-4-1.2-4.1 0-0.1 0.6-0.3 1.4-0.5 0.8-0.2 1.4-0.4 1.5-0.3 0 0.1 0.5 1.4 1 3 0.5 1.6 0.9 3.2 1 3.5q0.1 0.5-0.1 0.8c-0.1 0.2-0.2 0.4-0.3 0.4-0.1 0.1-0.2 0.3-0.2 0.4q0 0.3 0.2 0.3c0.2 0 1.5-0.4 3-0.8 2.3-0.7 2.7-0.9 2.7-1.2 0-0.2 0-0.3-0.3-0.3-0.1 0-0.4-0.1-0.6-0.2-0.3-0.2-0.6-1-1.4-3.7-0.6-1.8-1.1-3.4-1.1-3.5 0 0 0.6-0.2 1.2-0.4 0.6-0.2 1.2-0.4 1.3-0.4 0.1 0 0.2 0 0.2 0 0 0.1 0.2 0.5 0.3 1 0.2 0.5 0.8 2.5 1.4 4.5 0.6 1.9 1 3.7 1.1 3.9 0 0.2-0.2 0.6-0.5 1-0.4 0.6-0.4 0.6-0.2 0.9 0.3 0.2 0.3 0.2 0.9-0.1 0.3-0.2 1.3-0.8 2.3-1.4 1-0.5 1.8-1 1.8-1.2-0.1-0.1-0.2-0.5-0.4-0.9-0.1-0.3-1.3-4-2.5-8.1-1.6-5.3-2.3-7.3-2.5-7.4-0.1 0-0.2 0-0.3 0.1zm-203.4 14.8c-0.1 0.6-0.5 2.3-0.8 3.8-0.3 1.5-0.6 2.8-0.6 3 0 0.1 0.2 0.2 0.3 0.2 0.2 0.1 0.3 0 0.4-0.2 0.1-0.2 0.3-0.5 0.5-0.6 0.2-0.1 0.5-0.2 0.7-0.2 0.2 0 1.1 0.1 2 0.3 1 0.2 4.1 0.9 7.1 1.5 2.9 0.7 5.4 1.3 5.6 1.4 0.2 0.1 0.4 0.3 0.4 0.5 0 0.2 0.1 0.4 0.1 0.6 0 0.2 0.2 0.3 0.4 0.3 0.1 0 0.3 0 0.3 0 0-0.1 0.3-1.8 0.8-3.8 0.4-2.1 0.8-3.9 0.8-4 0-0.1-0.2-0.3-0.3-0.3q-0.3-0.1-0.4 0.2c-0.1 0.2-0.3 0.5-0.4 0.6-0.1 0.1-0.4 0.3-0.7 0.3-0.2 0-3.5-0.7-7.2-1.5-3.7-0.8-6.9-1.5-7.2-1.5-0.2-0.1-0.5-0.3-0.6-0.4-0.1-0.1-0.3-0.5-0.3-0.8 0-0.3-0.1-0.5-0.4-0.5-0.2 0-0.3 0.1-0.5 1.1zm210.1 11.2c-0.1 0.2-0.2 0.5-0.4 0.7-0.3 0.1-1.7 0.2-7.8 0.5-6.2 0.2-7.5 0.2-7.9 0.1-0.2-0.1-0.4-0.4-0.5-0.7-0.1-0.3-0.3-0.4-0.5-0.4h-0.3c0.1 4.1 0.1 5.8 0.2 6.4 0.1 1.1 0.1 1.1 0.4 1.1 0.3 0 0.4-0.1 0.4-0.4 0-0.2 0.1-0.5 0.3-0.7 0.4-0.4 0.5-0.4 3.1-0.5 1.4 0 3.4-0.1 4.3-0.1 1.6-0.1 1.8-0.1 1.8 0.1-0.1 0.2-2.1 2.2-4.6 4.6-2.8 2.7-4.6 4.3-4.9 4.4l-0.5 0.2c0.1 3.5 0.2 4.5 0.2 4.5 0 0.1 1.6 0 3.4 0 1.8-0.1 4-0.2 4.9-0.2 0.8-0.1 3.1-0.2 5-0.2l3.4-0.1c0.6 0.6 0.8 0.9 0.8 1 0 0.2 0 0.3 0.3 0.3h0.4c-0.2-3.9-0.2-5.6-0.3-6.3-0.1-1.3-0.1-1.4-0.4-1.3-0.2 0-0.3 0.2-0.3 0.5-0.1 0.4-0.2 0.6-0.6 0.8-0.4 0.2-1.1 0.2-3.7 0.3-1.8 0-3.4 0.1-3.7 0.1-0.4 0.1-0.6 0-0.6-0.1 0-0.1 1.2-1.3 2.6-2.7 1.4-1.3 3.1-3.1 3.9-3.9 0.9-0.7 1.7-1.5 2-1.6l0.5-0.2c0-2.2 0-3.7-0.1-4.8-0.1-1.9-0.1-1.9-0.4-1.9-0.3 0-0.3 0-0.4 0.5zm-210.2 3.3l-2.7 0.6c0 1.1-0.1 2-0.2 2.7-0.2 0.9-0.3 2-0.3 3.7 0 2 0.1 2.4 0.3 3.4 0.2 0.7 0.6 1.7 1 2.3 0.4 0.8 0.9 1.4 1.7 2.3 0.8 0.8 1.5 1.3 2.1 1.6 0.6 0.3 1.4 0.7 1.9 0.8 0.6 0.2 1.3 0.3 2.5 0.3 1.3 0 2-0.1 2.6-0.3 0.5-0.1 1.3-0.5 1.8-0.8 0.7-0.3 1.4-0.8 2.2-1.6 0.9-0.9 1.2-1.4 1.7-2.4 0.3-0.6 0.7-1.7 0.9-2.3 0.2-0.6 0.3-1.8 0.4-2.5 0-0.8 0-2.1-0.1-3.3-0.1-1-0.2-2.2-0.2-2.7v-0.8c-4.3-1.1-5.6-1.4-5.6-1.4-0.1 0-0.2 0.1-0.3 0.2 0 0.3 0.1 0.4 0.5 0.7 0.4 0.2 0.8 0.6 1 1.1 0.3 0.4 0.5 1.1 0.6 1.7 0.1 0.6 0.2 1.7 0.1 2.6 0 1.1-0.2 1.8-0.4 2.5-0.2 0.5-0.6 1.3-1 1.7-0.5 0.7-0.8 1-1.6 1.4-0.9 0.5-1 0.5-2.6 0.5-1.4 0-1.6 0-2.4-0.4-0.4-0.3-1.1-0.8-1.4-1.2-0.4-0.4-0.9-1.1-1.1-1.6-0.2-0.5-0.5-1.4-0.6-2-0.1-0.8-0.1-1.4 0-2.5 0.2-1.2 0.3-1.8 0.6-2.4 0.2-0.5 0.6-1 0.8-1.2 0.3-0.2 0.6-0.4 0.8-0.6q0.3-0.2 0.2-0.4c0-0.2-0.2-0.3-0.3-0.3-0.1 0-1.5 0.3-2.9 0.6zm38.7 77.7c-0.4 0.1-0.9 0.3-1.1 0.5-0.2 0.1-0.6 0.5-0.8 0.8-0.3 0.4-0.3 0.6-0.3 1.2 0 0.5 0.1 1.1 0.2 1.5 0.1 0.3 0.5 1 0.9 1.5 0.4 0.6 1.3 1.6 2 2.4 0.7 0.7 1.4 1.6 1.6 1.9 0.2 0.3 0.5 0.7 0.5 0.9 0.1 0.3 0 0.5-0.2 0.8-0.2 0.2-0.5 0.3-0.7 0.3-0.3 0-0.7-0.1-1-0.3-0.4-0.2-1.1-0.7-1.7-1.2-0.6-0.5-1.3-1.2-1.6-1.6-0.3-0.4-0.7-1.1-1-1.6-0.2-0.5-0.4-1.2-0.5-1.5q0-0.5-0.3-0.5c-0.1 0-0.6 0.1-1.2 0.2-0.5 0.1-1 0.2-1 0.2 0 0.1 0.2 0.5 0.3 1.1 0.2 0.5 0.6 1.4 0.9 2 0.3 0.6 0.9 1.4 1.8 2.3 0.7 0.7 1.7 1.7 2.3 2 0.6 0.4 1.5 0.9 2 1 0.5 0.2 1.2 0.3 1.5 0.3 0.5 0 1-0.1 1.5-0.4 0.5-0.2 0.9-0.6 1.2-1q0.4-0.5 0.4-1.2c0.1-0.5 0-1-0.1-1.4-0.1-0.3-0.5-1-0.7-1.4-0.3-0.4-1.2-1.5-2.1-2.5-0.9-0.9-1.8-1.9-2-2.3-0.2-0.3-0.4-0.7-0.4-0.9 0-0.3 0.1-0.5 0.3-0.6 0.2-0.2 0.5-0.2 0.9-0.1 0.3 0.1 0.9 0.4 1.3 0.7 0.5 0.2 1.3 0.9 1.8 1.5 0.6 0.6 1.1 1.4 1.4 2 0.3 0.5 0.5 1.1 0.5 1.2 0 0.2 0.1 0.3 0.4 0.2 0.2 0 0.8-0.1 1.2-0.2 0.8-0.1 0.8-0.2 0.8-0.5-0.1-0.2-0.3-0.8-0.5-1.3-0.2-0.4-0.6-1.1-0.8-1.4-0.3-0.4-0.8-1-1.4-1.6-0.5-0.5-1.3-1.2-1.7-1.5-0.5-0.4-1.2-0.8-1.7-1-0.4-0.2-1.1-0.4-1.5-0.5-0.4 0-1 0-1.4 0zm128.2 0.8c-0.4 0.2-1.1 0.5-1.6 0.8-0.5 0.3-1.3 0.8-1.7 1.3-0.5 0.4-1.2 1.2-1.5 1.7-0.4 0.6-0.8 1.4-0.9 1.9-0.2 0.5-0.3 1.1-0.2 1.4 0 0.4 0.2 0.9 0.3 1.3 0.2 0.3 0.6 0.8 0.9 1.1 0.4 0.3 0.9 0.6 1.3 0.6 0.4 0.1 1 0.2 1.4 0.1 0.5-0.1 1.3-0.4 1.9-0.7 0.9-0.4 1.5-0.9 2.2-1.6 0.7-0.7 1.1-1.3 1.5-2 0.3-0.6 0.6-1.3 0.7-1.5l0.1-0.5c0.5 0.6 0.7 1 0.8 1.3q0.2 0.6 0.2 1.4c0 0.4-0.2 1-0.3 1.3-0.2 0.3-0.7 1-1.2 1.5-0.6 0.5-1.3 1.1-1.8 1.3-0.4 0.2-1.2 0.5-1.7 0.6l-0.9 0.2c-0.2 1.1-0.2 1.5-0.2 1.7 0 0.3 0.1 0.3 0.8 0.3 0.4 0 1.1-0.1 1.7-0.3 0.4-0.2 1.2-0.5 1.7-0.8 0.5-0.3 1.4-1 2.1-1.7 0.8-0.9 1.3-1.5 1.6-2.1 0.3-0.5 0.6-1.3 0.6-1.7 0.1-0.5 0.1-1.2 0.1-1.7-0.1-0.5-0.3-1.2-0.6-1.9-0.4-0.7-0.8-1.3-1.4-1.8-0.5-0.5-1.2-1-1.7-1.2-0.7-0.4-1.1-0.5-2.1-0.5-1 0-1.5 0-2.1 0.2zm-114.2 9.5c-0.3 0.4-1.7 2.5-3.2 4.8-1.4 2.2-2.6 4.1-2.6 4.2 0 0.1 0.5 0.5 1.1 0.8 0.6 0.4 1.1 0.6 1.1 0.6 0.1-0.1 1.5-2.3 3.1-4.8 1.7-2.5 3.1-4.7 3.1-4.8 0.1 0-0.4-0.4-1-0.8l-1.2-0.8zm100.2 1.1c-0.4 0.1-1.1 0.3-1.6 0.5-0.5 0.2-1.2 0.6-1.6 0.8-0.5 0.3-1.2 0.9-1.7 1.4-0.6 0.5-1.1 1.1-1.4 1.7-0.2 0.4-0.4 1.1-0.5 1.5 0 0.4 0.1 1 0.2 1.4 0.1 0.3 0.4 0.8 0.7 1.2 0.3 0.3 0.8 0.7 1.1 0.8 0.4 0.2 0.9 0.3 1.6 0.3 0.6 0 1.4-0.2 2-0.3 0.5-0.2 1.4-0.6 1.9-1 0.6-0.4 1.4-1.1 1.8-1.5 0.4-0.4 0.8-1 1-1.3 0.2-0.4 0.4-0.7 0.4-0.7 0.1 0 0.3 0.2 0.4 0.4 0.1 0.3 0.2 0.8 0.2 1.2 0.1 0.6 0 0.9-0.2 1.6-0.2 0.5-0.6 1-1.1 1.4-0.4 0.3-1.2 0.8-1.7 1.1-1 0.4-1.3 0.5-2.5 0.6l-1.3 0.1c-0.5 1.5-0.5 1.9-0.5 2 0 0 0.5 0.1 1 0.1 0.6 0.1 1.3 0 2-0.1 0.6-0.1 1.6-0.5 2.3-0.9 0.7-0.3 1.7-0.9 2.1-1.3 0.5-0.4 1.2-1.1 1.5-1.6 0.3-0.5 0.7-1.2 0.8-1.6 0.1-0.4 0.2-1.1 0.2-1.6 0-0.5-0.1-1.3-0.2-1.7-0.2-0.5-0.5-1.1-0.6-1.4-0.2-0.3-0.6-0.9-0.8-1.2-0.3-0.3-0.8-0.7-1.2-1-0.3-0.3-0.9-0.6-1.3-0.7-0.3-0.1-1-0.2-1.4-0.2-0.4-0.1-1.1 0-1.6 0zm-94.3 6.3c-0.9 2-2 4.4-2.5 5.3l-0.7 1.7c1.7 0.8 2.2 1.1 2.3 1.1 0 0 0.2-0.4 0.5-0.9 0.2-0.5 0.6-1.4 0.9-2 0.2-0.6 0.8-1.7 1.2-2.6 0.4-0.9 0.8-1.6 0.9-1.6 0.1 0 0.5 0.7 1.2 2.5 0.5 1.5 1.4 3.9 1.9 5.3l1 2.7c1.6 0.8 2.1 1 2.2 1 0-0.1 1-2.1 2.1-4.6 1.2-2.5 2.2-4.9 2.4-5.3 0.2-0.3 0.3-0.7 0.2-0.7 0 0-0.5-0.3-1.1-0.6l-1.1-0.5c-0.7 1.4-1.4 2.9-2 4.3-0.6 1.4-1.2 2.5-1.3 2.5-0.1 0-0.8-1.6-2.1-5l-1.8-5c-1.8-0.8-2.3-1.1-2.4-1.1-0.1-0.1-0.9 1.5-1.8 3.5zm78.1 1.3c-0.6 0.1-1.5 0.4-2.1 0.6-0.5 0.2-1.3 0.6-1.8 0.8-0.4 0.3-1.1 0.8-1.5 1.1-0.4 0.4-0.8 0.9-1 1.2-0.1 0.3-0.3 0.9-0.3 1.2 0 0.4 0.1 0.9 0.2 1.1 0.2 0.2 0.4 0.5 0.5 0.7 0.2 0.1 0.5 0.3 0.8 0.4 0.3 0.1 0.7 0.2 0.9 0.2 0.2 0 0.4 0.1 0.4 0.2 0 0.1-0.2 0.4-0.4 0.7-0.3 0.2-0.6 0.6-0.7 0.9-0.2 0.2-0.3 0.8-0.3 1.2 0 0.6 0.1 0.8 0.4 1.3 0.3 0.4 0.7 0.8 1.1 0.9 0.4 0.2 1 0.4 1.6 0.5 0.5 0 1.4 0 2-0.1 0.6-0.1 1.7-0.4 2.4-0.6 0.6-0.3 1.7-0.7 2.2-1 0.6-0.4 1.4-0.9 1.8-1.3 0.4-0.4 0.8-0.9 0.9-1.3 0.2-0.3 0.3-0.8 0.3-1.2 0-0.3-0.1-0.8-0.2-1.1-0.2-0.3-0.5-0.7-0.7-0.9-0.2-0.1-0.6-0.3-0.9-0.4-0.3-0.1-0.8-0.2-1.1-0.2-0.2 0-0.5 0-0.6-0.1 0 0 0.1-0.3 0.3-0.4 0.2-0.2 0.5-0.6 0.7-0.9 0.1-0.3 0.3-0.8 0.3-1.1 0-0.2-0.1-0.7-0.2-0.9-0.2-0.3-0.4-0.6-0.6-0.8-0.2-0.2-0.6-0.4-0.9-0.5-0.3-0.2-1-0.3-1.5-0.3-0.5-0.1-1.4 0-2 0.1zm-57.1 3.4c-0.3 0.1-0.9 0.3-1.2 0.5-0.3 0.1-0.8 0.5-1.2 0.8-0.3 0.3-0.8 0.8-0.9 1.1-0.2 0.4-0.5 1-0.7 1.4-0.1 0.4-0.3 1.2-0.3 1.6-0.1 0.5 0 1.2 0.1 1.7 0.1 0.5 0.3 1.2 0.5 1.6 0.2 0.4 0.7 1 1.1 1.4 0.4 0.3 1.1 0.9 1.6 1.1 0.5 0.3 1.5 0.7 2.1 0.8 0.8 0.3 1.5 0.4 2.5 0.4 1 0 1.6-0.1 2.3-0.3 0.6-0.2 1.3-0.5 1.7-0.8 0.4-0.2 0.7-0.5 0.7-0.6 0-0.1-0.5-0.5-1-0.9l-0.9-0.8c-0.7 0.4-1.1 0.6-1.3 0.7-0.3 0.2-0.8 0.3-1.3 0.3-0.5 0-1.2 0-1.6-0.1-0.5-0.1-1.1-0.3-1.5-0.5-0.3-0.1-0.8-0.5-1.1-0.8-0.3-0.2-0.7-0.7-0.9-1-0.2-0.4-0.3-0.9-0.3-1.5 0-0.7 0.1-1.2 0.4-1.7 0.2-0.5 0.5-1 0.8-1.2 0.2-0.3 0.7-0.6 1-0.7 0.5-0.2 0.9-0.3 1.7-0.3 0.6 0 1.4 0.1 1.9 0.2 0.4 0.1 1 0.4 1.4 0.7 0.4 0.2 0.9 0.7 1.1 1.1 0.2 0.4 0.5 0.7 0.5 0.8 0 0 0.6-0.1 1.3-0.2 0.7-0.2 1.3-0.4 1.3-0.4 0 0-0.1-0.4-0.3-0.8-0.2-0.3-0.7-1-1.2-1.5-0.5-0.5-1.2-0.9-1.9-1.3-0.7-0.3-1.6-0.7-2.2-0.8-0.6-0.1-1.6-0.2-2.3-0.2-0.7 0-1.5 0.1-1.9 0.2zm43.1 0.9c-0.6 0.1-0.9 0.3-1.7 1.1-0.6 0.5-1.5 1.2-1.9 1.4l-0.9 0.4c0.3 1.6 0.4 2.1 0.4 2.2 0 0 0.4-0.1 0.9-0.4 0.6-0.2 1.2-0.6 1.6-0.9 0.4-0.2 0.6-0.4 0.7-0.3 0.1 0.1 0.5 2 0.9 4.2 0.4 2.1 0.7 4 0.8 4 0 0 0.6-0.1 1.3-0.2 1.2-0.3 1.3-0.3 1.2-0.6 0-0.1-0.5-2.7-1-5.6-0.6-3-1-5.4-1-5.5 0 0-0.2 0-0.3 0-0.1 0-0.6 0.1-1 0.2zm-28.3 1.8c0 0.2-0.1 2.8-0.2 5.7-0.2 3-0.3 5.5-0.2 5.5 0 0.1 2.1 0.2 4.5 0.3 2.5 0.1 5.2 0.3 6 0.3l1.4 0.1c0.1-0.7 0.2-1.2 0.2-1.6 0-0.7-0.1-0.7-0.4-0.7-0.3 0-2.3-0.1-4.5-0.2-2.3-0.1-4.3-0.2-4.4-0.2-0.2 0-0.2-0.2-0.1-1.2 0.1-0.6 0.2-1.2 0.2-1.2 0.1-0.1 1.8-0.1 3.8 0 2.1 0.1 3.7 0.2 3.7 0.2 0 0 0.1-0.5 0.1-1.1l0.1-1.1c-1.1-0.1-2.6-0.2-4.1-0.2-1.4-0.1-2.8-0.1-3.1-0.2h-0.4v-2.4c3.3 0.2 5.4 0.3 6.7 0.3l2.5 0.1q0-0.8 0.1-1.4l0.1-0.7c-1-0.2-3-0.3-5-0.3-2.1-0.1-4.5-0.2-5.4-0.3l-1.5-0.1z"/>
		<path class="s2" d="m125.9 26.7c-0.7 1.7-1.2 3.1-1.2 3.2 0 0 0.4 0.2 0.8 0.3 0.6 0.2 1.2 0.2 2.2 0.2 0.7-0.1 1.5-0.2 1.6-0.2 0.1 0 0.2-0.2 0.2-0.3 0-0.1-0.4-1.6-1-3.3-0.7-2-1.2-3-1.3-3-0.1 0-0.6 1.1-1.3 3.1zm65.7 22.8c-0.3 0.1-0.8 0.3-1.1 0.5-0.4 0.2-0.9 0.7-1.3 1.1-0.3 0.4-0.8 1-0.9 1.4-0.2 0.4-0.4 1-0.5 1.5 0 0.4 0 1.1 0.1 1.5 0.1 0.4 0.3 1.1 0.6 1.5 0.2 0.5 0.7 1.1 1.1 1.5 0.4 0.4 1.1 0.9 1.5 1.1 0.4 0.2 1.1 0.4 1.6 0.5 0.6 0.1 1 0.1 1.6 0 0.4-0.1 1-0.3 1.3-0.5 0.4-0.1 1-0.6 1.4-1 0.5-0.4 0.9-1.1 1.2-1.6 0.4-0.9 0.4-1.1 0.4-2.2 0.1-1.1 0-1.3-0.5-2.3-0.3-0.7-0.7-1.2-1.2-1.7-0.5-0.5-1.2-0.9-1.8-1.1-0.7-0.3-1.1-0.4-2-0.4-0.5 0-1.2 0.1-1.5 0.2zm18.6 21.7c-1.1 0.6-2 1.2-2 1.3 0 0.1 0.3 0.6 0.6 1.2 0.3 0.5 0.7 1.2 0.9 1.6 0.3 0.3 0.8 0.9 1.3 1.3 0.4 0.4 0.9 0.7 1.2 0.8 0.3 0 0.7 0 0.9 0 0.3-0.1 0.7-0.3 0.9-0.5 0.3-0.2 0.6-0.6 0.6-0.9 0.1-0.3 0.2-0.8 0.1-1.1 0-0.4-0.3-1.2-0.6-1.7-0.3-0.6-0.8-1.5-1.1-2.1-0.4-0.5-0.7-1-0.8-1 0 0-1 0.5-2 1.1zm-22.3 123.9c-0.4 0.2-1.1 0.5-1.5 0.9-0.4 0.3-1 0.8-1.3 1.1-0.2 0.3-0.5 0.8-0.7 1-0.1 0.3-0.2 0.7-0.2 1 0 0.5 0.1 0.7 0.5 1.1 0.4 0.4 0.6 0.5 1.1 0.5 0.3 0 0.8-0.1 1.1-0.3 0.4-0.2 1-0.6 1.4-0.9 0.3-0.3 0.9-0.9 1.2-1.3 0.3-0.5 0.6-1.1 0.7-1.3 0.2-0.3 0.3-0.7 0.3-1 0.1-0.4 0.1-0.5-0.3-0.6-0.2-0.2-0.7-0.3-1-0.3-0.4-0.1-0.9 0-1.3 0.1zm-14.5 10.5c-0.2 0.1-0.7 0.3-1.2 0.5-0.4 0.2-1.1 0.6-1.5 1-0.5 0.3-0.9 0.8-1.1 1.2-0.2 0.5-0.3 0.8-0.2 1.2 0 0.3 0.3 0.6 0.6 0.9 0.5 0.4 0.6 0.4 1.2 0.4 0.3-0.1 1-0.3 1.5-0.5 0.5-0.3 1.3-0.7 1.7-1 0.4-0.3 0.9-1 1.3-1.5 0.3-0.5 0.6-1 0.6-1.2 0-0.2-0.2-0.4-0.6-0.6-0.2-0.2-0.8-0.3-1.2-0.4-0.4 0-0.9 0-1.1 0zm-15.8 7.4c-0.2 0.1-0.6 0.2-1.1 0.3-0.4 0.1-1.1 0.4-1.6 0.7-0.4 0.2-1 0.6-1.2 0.8-0.2 0.3-0.3 0.6-0.3 0.9 0 0.4 0.1 0.6 0.4 0.8 0.3 0.2 0.6 0.3 1.1 0.3 0.4 0 1.1-0.1 1.5-0.2 0.4-0.2 1.2-0.5 1.8-0.7 0.5-0.3 1.1-0.7 1.4-1 0.2-0.2 0.3-0.6 0.3-0.8 0-0.2 0-0.5-0.1-0.6-0.1-0.2-0.4-0.3-0.7-0.4-0.3-0.1-0.7-0.2-0.9-0.2-0.2 0.1-0.4 0.1-0.6 0.1zm1.7 4.6c-0.4 0.1-1.2 0.3-1.7 0.5-0.6 0.2-1.3 0.6-1.7 0.8-0.4 0.3-0.8 0.7-1 1q-0.2 0.5-0.2 0.9c0.1 0.2 0.3 0.5 0.4 0.6 0.2 0.2 0.7 0.4 1 0.4 0.4 0.1 1 0 1.9-0.2 0.6-0.2 1.6-0.5 2.2-0.8 0.6-0.3 1.2-0.7 1.4-0.9 0.3-0.4 0.3-0.6 0.3-1.1 0-0.5-0.1-0.7-0.4-0.9-0.2-0.2-0.6-0.3-0.9-0.3-0.3-0.1-0.9 0-1.3 0z"/>
		<path class="s0" d="m120 49.2c-1.1 0-2.1 0.1-2.4 0.2q-0.4 0-0.4 0.3c0 0.1 0.1 0.4 0.3 0.6q0.3 0.4 1 0.6c0.4 0.1 1.2 0.3 1.7 0.4 0.6 0.1 1.4 0.2 1.7 0.4 0.4 0.1 1 0.3 1.3 0.5 0.3 0.1 0.8 0.5 1.2 0.8 0.3 0.4 0.8 0.9 1 1.3 0.2 0.5 0.3 0.9 0.3 1.7 0 0.8-0.1 1.3-0.6 2.8-0.4 1.2-0.7 2.2-0.7 2.6 0 0.4 0.1 1.3 0.3 2 0.1 0.6 0.3 1.6 0.5 2.2 0.2 0.6 0.6 1.5 0.9 2 0.2 0.5 0.7 1.2 1 1.5 0.2 0.3 0.7 0.6 1 0.7 0.4 0.1 0.6 0.1 1.1-0.1 0.3-0.1 0.9-0.6 1.4-1.1 0.5-0.5 1.4-1.7 2.1-2.8 0.7-1 1.4-2 1.6-2.2 0.1-0.2 0.5-0.5 0.9-0.6 0.3-0.2 1-0.5 1.7-0.6 0.6-0.2 1.5-0.6 1.9-0.8 0.5-0.2 1-0.5 1.1-0.7 0.1-0.1 0.2-0.5 0.2-1.2 0-0.7-0.2-1.7-0.4-2.5-0.2-0.8-0.6-1.9-0.8-2.4-0.2-0.5-0.7-1.3-1-1.7-0.4-0.5-1-1.2-1.5-1.7-0.4-0.4-1.2-0.9-1.6-1.1-0.4-0.2-1.2-0.5-1.8-0.7-0.6-0.2-1.8-0.3-3.3-0.4-1.3-0.1-3.6-0.2-5.1-0.2-1.5 0-3.6 0.1-4.6 0.2zm-10.1 1.3c-0.2 0.1-1.1 0.3-2.2 0.5-1 0.3-2.8 0.7-4 1.1-1.2 0.3-3.1 0.9-4.2 1.3-1.1 0.4-2.8 1.1-3.9 1.6-1.1 0.4-2.6 1.1-3.4 1.5-0.8 0.4-2.4 1.2-3.6 1.8-1.1 0.7-2.8 1.7-3.8 2.3-1 0.6-2.5 1.6-3.4 2.2-0.9 0.7-2.3 1.7-3.1 2.3-0.9 0.7-2.3 1.8-3.2 2.6-0.9 0.8-2.7 2.5-4 3.8-1.3 1.3-3.2 3.4-4.2 4.6-1 1.1-2.2 2.7-2.8 3.4-0.5 0.8-1.5 2.1-2.1 3-0.5 0.8-1.5 2.3-2 3.2-0.6 0.9-1.4 2.4-2 3.4-0.5 0.9-1.4 2.7-1.9 3.8-0.5 1.1-1.3 3-1.7 4-0.5 1.1-0.9 2.5-1 3.1-0.2 0.6-0.3 1.8-0.4 2.6-0.1 1-0.2 2.3-0.1 3.2 0 0.9 0.2 2.4 0.4 3.4 0.2 0.9 0.6 2.2 0.8 2.9 0.3 0.7 0.8 2 1.1 2.7 0.4 0.8 1.2 2.1 1.7 3 0.6 0.8 2.1 2.6 3.3 4.1 1.3 1.5 2.6 2.9 3 3.3 0.5 0.3 1.3 0.9 1.9 1.3 0.7 0.4 1.7 1 2.3 1.3 0.6 0.3 1.5 0.7 2 0.9 0.5 0.1 1.8 0.4 3 0.5 1.1 0.2 2.5 0.5 3 0.6 0.4 0.2 1.3 0.6 1.9 0.9 0.7 0.3 1.9 1 2.7 1.6 0.9 0.6 2.3 1.6 3.2 2.2 0.9 0.7 2.3 1.7 3 2.1 0.8 0.5 2 1.3 2.9 1.7 0.8 0.4 1.6 0.9 1.8 1.1 0.3 0.4 0.3 0.5 0.3 1.2-0.1 0.3-0.3 1-0.4 1.3-0.2 0.4-0.5 0.8-0.7 1.1-0.2 0.2-0.7 0.6-1 0.9-0.4 0.3-1.3 0.8-2 1.2-0.8 0.4-1.9 1-2.4 1.3-0.6 0.3-1.4 0.9-1.8 1.2-0.4 0.3-0.8 0.9-1 1.2-0.2 0.3-0.4 0.9-0.5 1.3 0 0.4 0 1 0.1 1.5 0.1 0.4 0.5 1.4 0.9 2.2 0.4 0.9 1.1 2.5 1.6 3.6 0.5 1.1 1.2 2.7 1.6 3.6 0.4 0.9 1.1 2 1.4 2.4 0.3 0.5 0.8 1.1 1.1 1.3 0.3 0.3 1.1 0.8 1.9 1.2 0.8 0.3 1.7 0.9 2 1.2 0.4 0.3 0.8 0.9 1 1.2 0.3 0.4 0.6 1.1 0.8 1.7 0.2 0.5 0.4 1.6 0.6 2.4 0.1 0.8 0.2 1.8 0.3 2.3 0 0.5 0.2 2 0.3 3.2 0.2 1.3 0.5 3 0.7 3.8 0.1 0.9 0.5 2.1 0.7 2.7 0.2 0.7 0.8 2.1 1.4 3.3 0.6 1.2 1.4 2.7 1.8 3.4 0.4 0.6 1.2 1.8 1.7 2.5 0.6 0.7 1.5 1.7 2 2.2 0.5 0.4 1.2 1 1.7 1.3 0.4 0.3 1.2 0.8 1.8 1.1 0.6 0.3 1.7 0.7 2.4 0.9 0.7 0.3 1.7 0.6 2.3 0.7 0.6 0.1 1.3 0.2 1.5 0.2 0.3 0 0.6-0.1 0.8-0.1 0.1-0.1 0.3-0.3 0.3-0.5 0-0.2-0.3-0.6-0.7-1-0.4-0.3-1.2-1-1.9-1.5-0.6-0.5-1.5-1.3-1.9-1.8-0.4-0.5-0.9-1.2-1.1-1.7-0.2-0.4-0.5-1.2-0.7-1.8-0.2-0.6-0.3-1.7-0.4-2.8 0-1 0-1.8 0.1-2.2 0.1-0.2 0.4-0.8 0.7-1.1 0.2-0.4 1.1-1.2 1.8-1.7 0.7-0.6 1.7-1.4 2.1-1.8 0.5-0.5 1.4-1.6 2-2.5 0.6-1 1.5-2.1 2-2.7 0.6-0.6 0.9-1.1 1-1.6 0.1-0.4 0.3-1 0.4-1.3 0-0.3 0.2-0.7 0.4-1 0.2-0.2 0.5-0.6 0.9-0.7 0.3-0.2 1.1-0.5 1.8-0.6 0.6-0.2 1.5-0.4 1.8-0.6q0.5-0.2 1.1-1c0.2-0.4 0.6-1.1 0.8-1.6 0.2-0.5 0.5-1.8 0.8-3.1 0.3-1.2 0.6-2.5 0.7-2.9 0.1-0.5 0.7-1.7 1.2-2.7 0.6-1.1 1-2.2 1.1-2.7 0.2-0.6 0.2-1 0-1.5 0-0.4-0.3-1.1-0.6-1.4-0.2-0.4-0.7-0.9-1.1-1.2-0.3-0.3-1.2-0.7-1.8-1-0.7-0.3-1.9-0.8-2.7-1-0.7-0.3-2.1-0.8-2.9-1.1-0.9-0.4-2-0.9-2.5-1.3-0.4-0.3-1-0.8-1.2-1.1-0.2-0.3-0.4-1-0.5-1.5-0.1-0.5-0.3-1.3-0.5-1.7-0.2-0.3-0.7-1-1-1.4-0.3-0.4-0.9-1-1.3-1.4-0.5-0.4-1.4-1.1-2-1.6-0.7-0.5-2.1-1.3-3.1-1.8-1-0.5-2.3-1-2.9-1.2-0.8-0.2-1.5-0.3-2.6-0.3-0.8 0-2.3 0.1-3.4 0.2-1 0.1-3 0.2-4.3 0.2-1.7 0-2.7 0-3.3-0.2-0.5-0.1-1.1-0.3-1.4-0.4-0.2-0.1-0.6-0.5-0.9-0.7-0.3-0.2-0.5-0.7-0.6-0.9-0.1-0.3-0.2-1.2-0.2-2.1-0.1-0.9-0.2-1.8-0.3-2.1-0.2-0.3-0.5-0.7-0.7-0.9-0.2-0.1-0.7-0.3-0.9-0.3-0.3 0-1 0-1.6 0.2-0.5 0.1-1.1 0.2-1.3 0.2-0.2 0-0.6-0.2-0.8-0.4-0.3-0.4-0.4-0.4-0.3-1.4 0.1-0.5 0.3-1.5 0.5-2.1 0.2-0.6 0.4-1.5 0.4-2 0.1-0.5 0.1-1 0-1.3 0-0.2-0.2-0.4-0.3-0.6-0.1-0.1-0.3-0.2-0.5-0.2-0.2 0-0.7 0.2-1.1 0.4-0.4 0.2-1.3 0.9-2 1.6-0.7 0.7-1.6 1.4-2 1.6-0.5 0.3-0.8 0.4-1.3 0.4-0.5 0-0.9-0.1-1.2-0.3-0.2-0.2-0.7-0.6-0.9-1-0.3-0.3-0.7-1-0.9-1.5-0.2-0.6-0.3-1.2-0.3-2.4-0.1-1 0-2 0.1-2.5 0.1-0.5 0.3-1.2 0.4-1.5 0.2-0.4 0.4-0.8 0.6-1 0.2-0.2 0.6-0.5 0.9-0.6 0.3-0.2 0.9-0.4 1.3-0.5 0.4-0.1 1.8-0.3 3.1-0.4 1.3-0.1 2.9-0.2 3.4-0.2 0.6 0.1 1.4 0.2 1.8 0.3 0.4 0.2 1 0.4 1.3 0.6 0.3 0.2 0.8 0.6 1.1 0.9 0.3 0.3 0.9 1 1.3 1.6 0.5 0.6 1.2 1.3 1.5 1.6 0.4 0.2 0.8 0.4 0.9 0.4 0.1 0 0.2-0.2 0.3-0.3 0.2-0.3 0.3-0.7 0.3-1.6-0.1-0.6-0.1-1.8-0.2-2.5 0-0.7 0-1.7 0-2.3 0.1-0.7 0.3-1.3 0.6-1.9 0.2-0.5 0.7-1.1 1.1-1.5q0.7-0.6 3-1.8c1.9-0.9 2.5-1.2 3.2-1.9 0.4-0.4 1.1-1.3 1.5-1.9 0.4-0.6 1.1-2 1.6-3 0.5-1 1.1-2.5 1.4-3.3 0.3-0.8 0.8-1.8 1.1-2.4 0.3-0.5 0.7-1.1 1-1.4 0.3-0.2 0.6-0.4 0.9-0.4 0.3 0 0.9 0.2 1.3 0.3 0.7 0.2 1 0.3 1.6 0.1 0.5 0 1.6-0.4 2.5-0.8 0.9-0.4 2.3-1.1 3.1-1.5 1-0.5 1.8-1.1 2.2-1.4 0.3-0.4 0.6-0.7 0.6-0.9 0-0.1-0.1-0.4-0.3-0.5-0.3-0.3-0.5-0.3-3-0.3-2.2 0-2.8-0.1-3.2-0.3-0.2-0.1-0.6-0.4-0.7-0.7-0.2-0.2-0.3-0.6-0.3-0.8 0-0.2 0.1-0.5 0.3-0.7 0.1-0.2 0.5-0.5 0.8-0.7 0.3-0.1 0.9-0.3 1.4-0.4 0.4-0.1 1.3-0.2 1.8-0.2 0.6 0 1.5-0.1 2-0.3 0.6-0.1 1.7-0.5 2.5-0.8 1.2-0.5 1.6-0.6 2.3-0.5 0.7 0 0.8 0 0.8 0.4 0 0.4-0.1 0.6-0.7 1.2-0.4 0.4-1.1 1-1.6 1.5-0.5 0.4-0.8 0.9-0.9 1.2q-0.1 0.4 0.1 0.6c0.2 0.1 0.6 0.3 0.9 0.4 0.5 0.2 1.3 0.2 2.4 0.2 1.1 0 1.8-0.1 2.5-0.2 0.4-0.2 0.9-0.4 1.1-0.5 0.1-0.1 0.4-0.4 0.5-0.6q0.2-0.5 0.1-1.1c-0.1-0.3-0.3-0.7-0.5-1-0.1-0.2-0.4-0.7-0.6-1-0.2-0.4-0.3-1-0.3-1.3 0-0.4 0.1-1 0.2-1.4 0.2-0.5 0.4-1.2 0.5-1.8 0.3-0.8 0.3-1 0.1-1.6-0.2-0.5-0.4-0.9-1-1.5-0.7-0.6-1.2-0.9-2.4-1.4-1-0.4-1.6-0.8-2-1.2-0.4-0.4-0.8-0.9-0.9-1.2-0.2-0.3-0.5-1.1-0.6-1.7-0.2-0.6-0.4-1.3-0.6-1.5-0.1-0.2-0.4-0.5-0.7-0.6-0.4-0.2-0.6-0.2-1.8 0.2-0.9 0.4-1.7 0.5-2.4 0.6-0.6 0-1.5 0-1.9-0.1-0.4-0.1-1.1-0.3-1.5-0.5-0.5-0.3-0.9-0.5-1.1-0.9-0.2-0.3-0.3-0.8-0.3-1.1 0-0.3 0.2-0.7 0.3-0.9 0.2-0.2 0.5-0.5 0.7-0.7 0.2-0.1 0.7-0.3 1.1-0.4 0.3 0 0.9 0 1.2 0.1 0.4 0.1 1.2 0.5 1.7 0.8 0.6 0.4 1.3 0.8 1.6 0.8 0.3 0.1 0.9 0 1.3-0.1 0.4-0.1 0.9-0.3 1.2-0.5 0.2-0.2 0.5-0.6 0.6-0.9 0.2-0.3 0.3-0.6 0.3-0.7 0-0.1 0.1-0.5 0.2-0.9 0.1-0.4 0.4-1 0.7-1.4 0.3-0.4 1-1.1 1.7-1.7 0.7-0.5 1.5-1.1 1.7-1.3 0.2-0.3 0.4-0.6 0.5-0.8 0.1-0.2 0.1-0.5 0.1-0.7-0.1-0.2-0.3-0.6-0.6-0.8-0.2-0.2-0.6-0.5-0.9-0.7-0.4-0.1-1.8-0.7-3.2-1.2-1.5-0.5-3.1-1.2-3.6-1.4-0.5-0.2-1.3-0.7-1.8-1-0.5-0.3-1.1-0.9-1.4-1.2-0.3-0.4-0.6-0.7-0.7-0.7-0.1 0.1-0.3 0.1-0.4 0.1zm53.3 11.1c-0.2 1-0.7 2.8-1.1 3.8-0.3 1.1-0.9 2.6-1.3 3.4q-0.7 1.4-2 3.1c-0.7 0.9-1.5 1.9-1.7 2.3-0.3 0.6-0.3 0.9-0.3 1.7 0 0.7 0 1.1 0.3 1.7 0.2 0.4 0.7 1.1 1 1.5 0.4 0.4 1 1 1.4 1.3 0.4 0.3 1.1 0.6 1.6 0.8 0.4 0.1 1 0.4 1.4 0.6q0.6 0.3 0.8 0.8c0.1 0.3 0.2 0.7 0.1 0.9 0 0.2-0.4 0.9-0.8 1.5-0.3 0.6-0.9 1.6-1.1 2.1-0.3 0.6-0.7 1.5-0.9 2-0.2 0.6-0.5 1.1-0.6 1.3-0.2 0.1-0.5 0.3-0.7 0.5-0.2 0.1-0.5 0.1-0.7 0.1-0.2 0-0.4-0.3-0.5-0.5-0.2-0.4-0.2-0.7 0-1.4 0.1-0.7 0.1-1.1 0-1.4-0.1-0.2-0.5-0.7-0.9-1.2-0.5-0.5-0.8-1-0.9-1.3 0-0.3 0-0.9 0.1-1.5 0.2-0.6 0.3-1.3 0.3-1.7 0-0.4-0.1-0.7-0.3-0.9-0.3-0.3-0.5-0.3-1.2-0.2-0.6 0-1.1 0.2-1.6 0.5-0.5 0.3-1.1 0.8-1.5 1.2-0.3 0.4-0.9 1.3-1.3 2-0.4 0.6-1.1 1.9-1.5 2.9-0.4 1-0.8 2.2-0.9 2.8-0.2 0.7-0.2 1.1-0.1 1.4 0.1 0.2 0.3 0.4 0.5 0.5 0.3 0.1 0.7 0.1 2-0.2 0.8-0.2 1.7-0.4 1.9-0.4l0.4 0.1-0.2 2.8c0.7 0.5 1.3 0.7 1.9 0.9 0.5 0.1 1.2 0.3 1.4 0.5q0.5 0.3 0.6 0.8 0.2 0.5 0 0.9c0 0.2-0.3 0.6-0.5 0.8-0.2 0.3-0.6 0.6-0.9 0.8-0.3 0.1-1 0.3-1.6 0.4-0.6 0-1.7 0.1-2.6 0.1-1.3 0-1.7 0-2.1 0.2-0.3 0.2-0.7 0.5-0.9 0.7-0.2 0.4-0.3 0.6-0.3 2.3 0 1.5 0 2-0.3 2.9-0.2 0.5-0.3 1.2-0.3 1.4 0 0.3 0.1 0.6 0.1 0.8 0.1 0.1 0.4 0.3 0.6 0.5 0.4 0.1 0.9 0.2 1.6 0.2 0.7 0 1.6-0.1 2-0.2 0.5-0.1 1.5-0.3 2.2-0.6 1-0.3 1.6-0.6 2.1-1.1 0.5-0.4 1.2-1.2 1.9-2.2 0.6-0.9 1.2-1.8 1.4-1.9 0.2-0.2 0.7-0.4 1.2-0.6 0.4-0.1 1.6-0.4 2.7-0.5 1.4-0.3 2.2-0.3 3.2-0.3 0.8 0.1 1.5 0.2 2 0.4 0.5 0.2 1.2 0.6 1.7 1 0.5 0.4 1.2 1.2 1.6 1.6 0.5 0.5 0.9 1.2 1.1 1.7 0.2 0.5 0.6 1.3 0.8 1.8 0.4 0.7 0.6 1 0.7 1 0.2 0 0.4-0.2 0.5-0.4 0.2-0.2 0.3-0.7 0.4-1.3 0-0.5 0-1.3-0.1-1.7-0.1-0.7-0.3-1-1.3-2.1-0.6-0.8-1.3-1.8-1.5-2.2-0.3-0.5-0.5-1-0.5-1.1 0-0.2 0.1-0.4 0.2-0.6 0.1-0.2 0.3-0.5 0.5-0.6 0.3-0.1 0.5-0.1 0.9 0 0.3 0.1 0.9 0.6 1.4 1 0.5 0.5 1.3 1.4 1.9 2.1 0.5 0.7 1.3 1.9 1.8 2.6 0.5 0.8 1.4 1.9 2.1 2.5 0.7 0.8 1.4 1.3 1.9 1.6 0.4 0.2 1.1 0.4 1.4 0.4 0.5 0.1 0.8 0.1 1.5-0.3 0.5-0.3 1.1-0.5 1.3-0.5 0.3 0 1.1 0.3 1.9 0.5 0.9 0.4 1.6 0.5 2.1 0.5 0.5 0 1.2 0 1.7-0.1 0.5-0.1 1.4-0.2 2-0.2 0.8 0 1.2 0 1.5 0.2 0.2 0.1 0.4 0.4 0.5 0.6 0.1 0.2 0.1 0.5 0 1-0.1 0.4-0.3 1-0.5 1.3-0.2 0.4-0.6 0.9-0.9 1.2-0.3 0.3-0.8 0.7-1.3 0.9-0.4 0.2-1.1 0.5-1.7 0.6-0.6 0.1-1.7 0.2-3 0.2-1.1 0-2.7-0.1-3.5-0.2-0.9-0.1-2.1-0.4-2.9-0.7-1-0.3-1.6-0.4-2.5-0.4-1.2 0-1.3 0-1.9 0.4-0.3 0.2-1 0.5-1.5 0.7-0.5 0.1-1.4 0.2-1.8 0.2-0.5 0-1.3-0.1-1.7-0.1-0.4-0.1-1.2-0.4-1.8-0.7-0.6-0.3-1.4-0.7-1.7-1-0.5-0.3-0.9-0.8-1.1-1.2-0.2-0.4-0.3-1-0.3-1.3 0-0.3 0.1-0.9 0.3-1.3 0.2-0.4 0.2-0.8 0.2-1-0.1-0.2-0.3-0.5-0.7-0.7-0.4-0.2-0.9-0.3-1.7-0.3-0.8-0.1-1.5 0-2.2 0.2-0.5 0.1-1.8 0.5-2.8 0.9-1 0.4-2.3 0.8-2.9 1-0.6 0.1-1.8 0.4-2.6 0.6-0.9 0.2-2.1 0.6-2.6 0.9-0.6 0.2-1.5 0.9-2.1 1.3-1 0.9-1.2 1.1-1.9 2.5-0.7 1.3-1 1.7-1.6 2.2-0.4 0.4-1.5 1-2.4 1.5-0.9 0.4-2 1.1-2.4 1.3-0.5 0.3-1 0.8-1.2 1.1-0.3 0.2-0.6 0.8-0.8 1.2-0.3 0.7-0.4 1-0.4 2 0 0.9 0.1 1.5 0.4 2.3 0.2 0.6 0.6 1.5 0.8 2 0.3 0.5 1.4 2.4 2.6 4.3 1.2 1.9 2.5 4 3 4.6 0.5 0.7 1.4 1.7 2 2.2 0.5 0.6 1.4 1.2 1.9 1.5 0.4 0.2 1.2 0.5 1.7 0.6 0.5 0.1 1.2 0.1 1.7 0.1 0.4-0.1 2-0.3 3.4-0.5 2-0.3 2.9-0.3 4.2-0.3 1.2 0 1.8 0.1 2.5 0.4 0.4 0.1 1.2 0.5 1.6 0.8 0.4 0.3 1.1 0.9 1.6 1.3 0.4 0.5 1 1.1 1.2 1.5 0.3 0.4 0.8 1.2 1 1.8 0.3 0.6 0.8 1.6 1 2.3 0.2 0.7 0.6 2 0.7 2.9 0.2 0.8 0.4 2.5 0.6 3.7 0.2 1.3 0.4 2.8 0.6 3.4 0.2 0.7 0.4 1.6 0.6 2.1 0.2 0.5 0.7 1.7 1.2 2.6 0.5 1 1.1 2.5 1.4 3.3 0.2 0.8 0.6 2 0.7 2.6 0.1 0.7 0.3 1.5 0.5 1.9 0.3 0.5 0.5 0.8 0.8 0.9 0.3 0.2 0.8 0.3 1.2 0.4 0.4 0 1.2 0 1.8-0.1 0.9-0.2 1.3-0.3 2.1-0.9 0.5-0.3 1.2-0.8 1.5-1.1 0.3-0.2 1.2-1 1.9-1.8 0.8-0.7 1.7-1.7 2-2.3 0.4-0.5 1.1-1.6 1.6-2.4 0.4-0.7 1.3-2.2 1.8-3.2 0.6-1 1.4-2.7 1.9-3.7 0.4-1 1.1-2.6 1.5-3.5 0.3-0.9 0.9-2.4 1.3-3.4 0.3-1 0.8-2.6 1.1-3.5 0.3-0.9 0.7-2.4 0.9-3.3 0.2-0.9 0.6-2.3 0.7-3.1 0.2-0.8 0.4-2.2 0.6-3.1 0.2-1 0.3-1.8 0.3-1.8 0-0.1-0.4-0.2-0.8-0.4-0.4-0.1-1-0.4-1.4-0.6-0.4-0.2-1-0.6-1.4-1-0.4-0.3-0.9-0.9-1.1-1.3-0.2-0.3-0.4-0.9-0.5-1.2-0.1-0.4-0.3-1.3-0.4-2 0-0.8-0.2-1.9-0.3-2.4-0.1-0.6-0.4-1.5-0.5-2-0.2-0.5-0.5-1.3-0.8-1.8-0.2-0.5-0.7-1.4-1.1-2.1-0.4-0.7-0.9-1.5-1-1.8-0.1-0.3-0.1-0.6-0.1-0.7 0 0 0.2 0 0.4 0 0.2 0.1 0.8 0.4 1.2 0.7 0.5 0.4 1.3 1 1.7 1.5 0.5 0.5 1.1 1.2 1.4 1.7 0.4 0.5 0.9 1.4 1.2 2.1 0.4 0.7 0.8 2 1.1 2.8 0.3 0.8 0.7 1.9 0.9 2.3 0.2 0.5 0.7 1.1 1 1.3 0.2 0.3 0.6 0.5 0.7 0.5 0.1 0 0.2-0.1 0.3-0.3 0-0.2 0.1-2 0.1-4 0.1-2.3 0.1-4.6 0-6.3-0.1-1.5-0.4-3.9-0.6-5.3-0.1-1.5-0.5-3.7-0.7-4.9-0.3-1.2-0.7-3.1-1-4.3-0.3-1.2-1-3.6-1.6-5.2-0.5-1.6-1.4-4-2-5.4-0.6-1.3-1.5-3.3-2-4.3-0.5-1-1.4-2.7-2-3.7-0.6-1.1-1.8-3-2.7-4.4-0.9-1.3-2.2-3.2-2.9-4.1-0.7-0.9-2-2.5-2.8-3.5-0.9-1-2.6-2.8-3.9-4.1-1.3-1.3-3-2.9-3.8-3.6-0.9-0.7-2.1-1.8-2.9-2.4-0.7-0.6-2.1-1.6-3-2.3-1-0.6-2.5-1.7-3.4-2.3-1-0.5-1.8-1-1.9-1-0.1 0-0.3 0.8-0.5 1.9z"/>
		<path class="s1" d="m105.3 57.9c-0.4 0.1-1 0.3-1.4 0.5-0.4 0.3-1 0.8-1.4 1.1-0.6 0.5-0.7 0.8-0.8 1.2-0.1 0.3-0.3 1-0.4 1.4-0.2 0.5-0.6 1.3-0.9 1.7-0.4 0.5-0.9 1.1-1.2 1.5-0.4 0.3-0.8 0.6-1.1 0.8-0.2 0.1-0.7 0.2-0.9 0.2-0.4 0-0.7-0.1-0.9-0.3-0.2-0.2-0.5-0.6-0.7-1-0.1-0.3-0.3-0.8-0.3-1-0.1-0.2-0.3-0.5-0.5-0.7-0.3-0.3-0.5-0.4-1.2-0.4-0.7 0-1.2 0.2-1.9 0.4-0.6 0.2-1.6 0.8-2.3 1.2-0.7 0.4-1.7 1-2.2 1.4-0.5 0.4-1.3 0.8-1.8 1-0.5 0.2-1.4 0.6-1.9 0.8-0.6 0.3-1.3 0.8-1.6 1.2-0.5 0.4-0.7 0.7-0.7 1.1 0 0.4 0.1 0.6 0.4 0.9 0.3 0.2 0.6 0.5 0.8 0.6 0.2 0.1 1.2 0.5 2.3 0.9 1.1 0.3 2.5 0.9 3 1.2 0.6 0.3 1.4 0.9 2 1.5 0.6 0.5 1.2 1.3 1.5 1.7 0.2 0.5 0.6 1.5 0.9 2.4 0.3 0.8 0.7 1.7 0.8 1.9 0.1 0.3 0.3 0.5 0.4 0.5 0.1 0 0.4 0 0.6-0.1 0.1-0.2 0.5-0.5 0.7-0.9 0.2-0.3 0.7-1.1 1-1.8 0.4-0.6 0.9-1.4 1.2-1.7 0.5-0.6 0.8-0.7 2.5-1.3 1.5-0.5 2-0.7 2.4-1.1 0.5-0.4 0.6-0.6 0.6-1.2 0-0.5-0.2-1-0.5-1.8-0.3-0.6-0.5-1.2-0.5-1.5 0-0.2 0.1-0.8 0.3-1.2 0.1-0.5 0.5-1.3 0.7-1.8 0.3-0.5 0.9-1.4 1.4-2 0.4-0.6 1.5-1.6 2.3-2.3 0.8-0.6 1.7-1.5 2.1-2 0.4-0.4 0.9-1 1.1-1.3 0.2-0.3 0.3-0.7 0.3-1 0-0.2-0.1-0.5-0.3-0.5-0.1-0.1-0.6-0.2-1-0.3-0.5-0.1-1.2-0.1-1.6-0.1-0.4 0-1 0.1-1.3 0.2z"/>
	</g>
</svg>