<svg xmlns="http://www.w3.org/2000/svg" viewBox="0 0 64 64" role="img" aria-label="Predictions IA brain"><defs><radialGradient id="g" cx="35%" cy="30%" r="80%"><stop offset="0%" stop-color="#fff" stop-opacity=".55"/><stop offset="60%" stop-color="#fff" stop-opacity=".15"/><stop offset="100%" stop-color="#fff" stop-opacity=".04"/></radialGradient><radialGradient id="s" cx="32%" cy="28%" r="78%"><stop offset="0%" stop-color="#ce93d8"/><stop offset="55%" stop-color="#9c27b0"/><stop offset="100%" stop-color="#4a148c"/></radialGradient><filter id="sh"><feDropShadow dx="0" dy="2" stdDeviation="2" flood-opacity=".45"/></filter></defs><circle cx="32" cy="32" r="29" fill="url(#g)" stroke="#fff" stroke-opacity=".35" stroke-width=".8"/><g filter="url(#sh)"><path d="M22 30 Q18 26 22 22 Q26 18 30 22 Q32 16 36 22 Q44 18 46 26 Q50 30 46 36 Q48 42 42 44 Q38 48 32 46 Q26 48 22 44 Q16 42 18 36 Q14 32 18 28 Q20 24 22 30 Z" fill="url(#s)"/><path d="M32 22 L32 46" stroke="#fff" stroke-width=".8" opacity=".5"/><circle cx="26" cy="28" r="1.5" fill="#fff" opacity=".7"/><circle cx="38" cy="28" r="1.5" fill="#fff" opacity=".7"/><circle cx="28" cy="36" r="1.5" fill="#fff" opacity=".7"/><circle cx="36" cy="36" r="1.5" fill="#fff" opacity=".7"/><circle cx="32" cy="40" r="1.5" fill="#fff" opacity=".7"/></g></svg>
