<svg xmlns="http://www.w3.org/2000/svg" viewBox="0 0 64 64" role="img" aria-label="Guide"><defs><radialGradient id="g" cx="35%" cy="30%" r="80%"><stop offset="0%" stop-color="#fff" stop-opacity=".55"/><stop offset="60%" stop-color="#fff" stop-opacity=".15"/><stop offset="100%" stop-color="#fff" stop-opacity=".04"/></radialGradient><linearGradient id="s" x1="0%" y1="0%" x2="0%" y2="100%"><stop offset="0%" stop-color="#5e81ce"/><stop offset="100%" stop-color="#1a3a7a"/></linearGradient><filter id="sh"><feDropShadow dx="0" dy="2" stdDeviation="2" flood-opacity=".45"/></filter></defs><circle cx="32" cy="32" r="29" fill="url(#g)" stroke="#fff" stroke-opacity=".35" stroke-width=".8"/><g filter="url(#sh)"><path d="M32 22 Q26 20 16 22 L16 44 Q26 42 32 44 Q38 42 48 44 L48 22 Q38 20 32 22 Z" fill="url(#s)"/><line x1="32" y1="22" x2="32" y2="44" stroke="#0a1a3a" stroke-width="1.2"/><line x1="20" y1="28" x2="29" y2="28" stroke="#fff" stroke-width=".8" opacity=".6"/><line x1="20" y1="32" x2="29" y2="32" stroke="#fff" stroke-width=".8" opacity=".6"/><line x1="20" y1="36" x2="28" y2="36" stroke="#fff" stroke-width=".8" opacity=".6"/><line x1="35" y1="28" x2="44" y2="28" stroke="#fff" stroke-width=".8" opacity=".6"/><line x1="35" y1="32" x2="44" y2="32" stroke="#fff" stroke-width=".8" opacity=".6"/><line x1="35" y1="36" x2="43" y2="36" stroke="#fff" stroke-width=".8" opacity=".6"/></g></svg>
