<svg xmlns="http://www.w3.org/2000/svg" viewBox="0 0 64 64" role="img" aria-label="Parametres gear"><defs><radialGradient id="g" cx="35%" cy="30%" r="80%"><stop offset="0%" stop-color="#fff" stop-opacity=".55"/><stop offset="60%" stop-color="#fff" stop-opacity=".15"/><stop offset="100%" stop-color="#fff" stop-opacity=".04"/></radialGradient><radialGradient id="s" cx="32%" cy="28%" r="78%"><stop offset="0%" stop-color="#eceff1"/><stop offset="55%" stop-color="#90a4ae"/><stop offset="100%" stop-color="#37474f"/></radialGradient><filter id="sh"><feDropShadow dx="0" dy="2" stdDeviation="2" flood-opacity=".45"/></filter></defs><circle cx="32" cy="32" r="29" fill="url(#g)" stroke="#fff" stroke-opacity=".35" stroke-width=".8"/><g filter="url(#sh)"><path d="M32 16 L34 20 L38 18 L40 22 L44 22 L44 26 L48 28 L46 32 L48 36 L44 38 L44 42 L40 42 L38 46 L34 44 L32 48 L30 44 L26 46 L24 42 L20 42 L20 38 L16 36 L18 32 L16 28 L20 26 L20 22 L24 22 L26 18 L30 20 Z" fill="url(#s)"/><circle cx="32" cy="32" r="7" fill="#263238"/><circle cx="32" cy="32" r="3" fill="#fff"/></g></svg>
